<svg xmlns="http://www.w3.org/2000/svg" xmlns:xlink="http://www.w3.org/1999/xlink" id="body_1" preserveAspectRatio="xMinYMin meet" viewBox="0 0 816 1056"><defs><clipPath id="1"><path id="" clip-rule="evenodd" transform="matrix(1 0 0 1 0 0)" d="M0 792L0 0L0 0L612 0L612 0L612 792L612 792L0 792z" /></clipPath><clipPath id="2"><path id="" clip-rule="evenodd" transform="matrix(1 0 0 1 0 0)" d="M42.6 702.33L224.21 702.33L224.21 702.33L224.21 135.75L224.21 135.75L42.6 135.75z" /></clipPath><clipPath id="3"><path id="" clip-rule="evenodd" transform="matrix(1 0 0 1 0 0)" d="M42.6 702.33L224.21 702.33L224.21 702.33L224.21 135.75L224.21 135.75L42.6 135.75z" /></clipPath><clipPath id="4"><path id="" clip-rule="evenodd" transform="matrix(1 0 0 1 0 0)" d="M42.6 702.33L224.21 702.33L224.21 702.33L224.21 135.75L224.21 135.75L42.6 135.75z" /></clipPath><clipPath id="5"><path id="" clip-rule="evenodd" transform="matrix(1 0 0 1 0 0)" d="M42.6 702.33L224.21 702.33L224.21 702.33L224.21 135.75L224.21 135.75L42.6 135.75z" /></clipPath><clipPath id="6"><path id="" clip-rule="evenodd" transform="matrix(1 0 0 1 0 0)" d="M42.6 702.33L224.21 702.33L224.21 702.33L224.21 135.75L224.21 135.75L42.6 135.75z" /></clipPath><clipPath id="7"><path id="" clip-rule="evenodd" transform="matrix(1 0 0 1 0 0)" d="M42.6 702.33L224.21 702.33L224.21 702.33L224.21 135.75L224.21 135.75L42.6 135.75z" /></clipPath><clipPath id="8"><path id="" clip-rule="evenodd" transform="matrix(1 0 0 1 0 0)" d="M42.6 702.33L224.21 702.33L224.21 702.33L224.21 135.75L224.21 135.75L42.6 135.75z" /></clipPath><clipPath id="9"><path id="" clip-rule="evenodd" transform="matrix(1 0 0 1 0 0)" d="M42.6 702.33L224.21 702.33L224.21 702.33L224.21 135.75L224.21 135.75L42.6 135.75z" /></clipPath><clipPath id="10"><path id="" clip-rule="evenodd" transform="matrix(1 0 0 1 0 0)" d="M42.6 702.33L224.21 702.33L224.21 702.33L224.21 135.75L224.21 135.75L42.6 135.75z" /></clipPath><clipPath id="11"><path id="" clip-rule="evenodd" transform="matrix(1 0 0 1 0 0)" d="M42.6 702.33L224.21 702.33L224.21 702.33L224.21 135.75L224.21 135.75L42.6 135.75z" /></clipPath><clipPath id="12"><path id="" clip-rule="evenodd" transform="matrix(1 0 0 1 0 0)" d="M42.6 702.33L224.21 702.33L224.21 702.33L224.21 135.75L224.21 135.75L42.6 135.75z" /></clipPath><clipPath id="13"><path id="" clip-rule="evenodd" transform="matrix(1 0 0 1 0 0)" d="M42.6 702.33L224.21 702.33L224.21 702.33L224.21 135.75L224.21 135.75L42.6 135.75z" /></clipPath><clipPath id="14"><path id="" clip-rule="evenodd" transform="matrix(1 0 0 1 0 0)" d="M42.6 702.33L224.21 702.33L224.21 702.33L224.21 135.75L224.21 135.75L42.6 135.75z" /></clipPath><clipPath id="15"><path id="" clip-rule="evenodd" transform="matrix(1 0 0 1 0 0)" d="M42.6 702.33L224.21 702.33L224.21 702.33L224.21 135.75L224.21 135.75L42.6 135.75z" /></clipPath><clipPath id="16"><path id="" clip-rule="evenodd" transform="matrix(1 0 0 1 0 0)" d="M42.6 702.33L224.21 702.33L224.21 702.33L224.21 135.75L224.21 135.75L42.6 135.75z" /></clipPath><clipPath id="17"><path id="" clip-rule="evenodd" transform="matrix(1 0 0 1 0 0)" d="M42.6 702.33L224.21 702.33L224.21 702.33L224.21 135.75L224.21 135.75L42.6 135.75z" /></clipPath><clipPath id="18"><path id="" clip-rule="evenodd" transform="matrix(1 0 0 1 0 0)" d="M42.6 702.33L224.21 702.33L224.21 702.33L224.21 135.75L224.21 135.75L42.6 135.75z" /></clipPath><clipPath id="19"><path id="" clip-rule="evenodd" transform="matrix(1 0 0 1 0 0)" d="M42.6 702.33L224.21 702.33L224.21 702.33L224.21 135.75L224.21 135.75L42.6 135.75z" /></clipPath><clipPath id="20"><path id="" clip-rule="evenodd" transform="matrix(1 0 0 1 0 0)" d="M42.6 702.33L224.21 702.33L224.21 702.33L224.21 135.75L224.21 135.75L42.6 135.75z" /></clipPath><clipPath id="21"><path id="" clip-rule="evenodd" transform="matrix(1 0 0 1 0 0)" d="M42.6 702.33L224.21 702.33L224.21 702.33L224.21 135.75L224.21 135.75L42.6 135.75z" /></clipPath><clipPath id="22"><path id="" clip-rule="evenodd" transform="matrix(1 0 0 1 0 0)" d="M42.6 702.33L224.21 702.33L224.21 702.33L224.21 135.75L224.21 135.75L42.6 135.75z" /></clipPath><clipPath id="23"><path id="" clip-rule="evenodd" transform="matrix(1 0 0 1 0 0)" d="M42.6 702.33L224.21 702.33L224.21 702.33L224.21 135.75L224.21 135.75L42.6 135.75z" /></clipPath><clipPath id="24"><path id="" clip-rule="evenodd" transform="matrix(1 0 0 1 0 0)" d="M42.6 702.33L224.21 702.33L224.21 702.33L224.21 135.75L224.21 135.75L42.6 135.75z" /></clipPath><clipPath id="25"><path id="" clip-rule="evenodd" transform="matrix(1 0 0 1 0 0)" d="M42.6 702.33L224.21 702.33L224.21 702.33L224.21 135.75L224.21 135.75L42.6 135.75z" /></clipPath><clipPath id="26"><path id="" clip-rule="evenodd" transform="matrix(1 0 0 1 0 0)" d="M42.6 702.33L224.21 702.33L224.21 702.33L224.21 135.75L224.21 135.75L42.6 135.75z" /></clipPath><clipPath id="27"><path id="" clip-rule="evenodd" transform="matrix(1 0 0 1 0 0)" d="M42.6 702.33L224.21 702.33L224.21 702.33L224.21 135.75L224.21 135.75L42.6 135.75z" /></clipPath><clipPath id="28"><path id="" clip-rule="evenodd" transform="matrix(1 0 0 1 0 0)" d="M42.6 702.33L224.21 702.33L224.21 702.33L224.21 135.75L224.21 135.75L42.6 135.75z" /></clipPath><clipPath id="29"><path id="" clip-rule="evenodd" transform="matrix(1 0 0 1 0 0)" d="M42.6 702.33L224.21 702.33L224.21 702.33L224.21 135.75L224.21 135.75L42.6 135.75z" /></clipPath><clipPath id="30"><path id="" clip-rule="evenodd" transform="matrix(1 0 0 1 0 0)" d="M42.6 702.33L224.21 702.33L224.21 702.33L224.21 135.75L224.21 135.75L42.6 135.75z" /></clipPath><clipPath id="31"><path id="" clip-rule="evenodd" transform="matrix(1 0 0 1 0 0)" d="M42.6 702.33L224.21 702.33L224.21 702.33L224.21 135.75L224.21 135.75L42.6 135.75z" /></clipPath><clipPath id="32"><path id="" clip-rule="evenodd" transform="matrix(1 0 0 1 0 0)" d="M42.6 702.33L224.21 702.33L224.21 702.33L224.21 135.75L224.21 135.75L42.6 135.75z" /></clipPath><clipPath id="33"><path id="" clip-rule="evenodd" transform="matrix(1 0 0 1 0 0)" d="M42.6 702.33L224.21 702.33L224.21 702.33L224.21 135.75L224.21 135.75L42.6 135.75z" /></clipPath><clipPath id="34"><path id="" clip-rule="evenodd" transform="matrix(1 0 0 1 0 0)" d="M42.6 702.33L224.21 702.33L224.21 702.33L224.21 135.75L224.21 135.75L42.6 135.75z" /></clipPath><clipPath id="35"><path id="" clip-rule="evenodd" transform="matrix(1 0 0 1 0 0)" d="M42.6 702.33L224.21 702.33L224.21 702.33L224.21 135.75L224.21 135.75L42.6 135.75z" /></clipPath><clipPath id="36"><path id="" clip-rule="evenodd" transform="matrix(1 0 0 1 0 0)" d="M42.6 702.33L224.21 702.33L224.21 702.33L224.21 135.75L224.21 135.75L42.6 135.75z" /></clipPath><clipPath id="37"><path id="" clip-rule="evenodd" transform="matrix(1 0 0 1 0 0)" d="M42.6 702.33L224.21 702.33L224.21 702.33L224.21 135.75L224.21 135.75L42.6 135.75z" /></clipPath><clipPath id="38"><path id="" clip-rule="evenodd" transform="matrix(1 0 0 1 0 0)" d="M42.6 702.33L224.21 702.33L224.21 702.33L224.21 135.75L224.21 135.75L42.6 135.75z" /></clipPath><clipPath id="39"><path id="" clip-rule="evenodd" transform="matrix(1 0 0 1 0 0)" d="M42.6 702.33L224.21 702.33L224.21 702.33L224.21 135.75L224.21 135.75L42.6 135.75z" /></clipPath><clipPath id="40"><path id="" clip-rule="evenodd" transform="matrix(1 0 0 1 0 0)" d="M42.6 702.33L224.21 702.33L224.21 702.33L224.21 135.75L224.21 135.75L42.6 135.75z" /></clipPath><clipPath id="41"><path id="" clip-rule="evenodd" transform="matrix(1 0 0 1 0 0)" d="M42.6 702.33L224.21 702.33L224.21 702.33L224.21 135.75L224.21 135.75L42.6 135.75z" /></clipPath><clipPath id="42"><path id="" clip-rule="evenodd" transform="matrix(1 0 0 1 0 0)" d="M42.6 702.33L224.21 702.33L224.21 702.33L224.21 135.75L224.21 135.75L42.6 135.75z" /></clipPath><clipPath id="43"><path id="" clip-rule="evenodd" transform="matrix(1 0 0 1 0 0)" d="M42.6 702.33L224.21 702.33L224.21 702.33L224.21 135.75L224.21 135.75L42.6 135.75z" /></clipPath><clipPath id="44"><path id="" clip-rule="evenodd" transform="matrix(1 0 0 1 0 0)" d="M42.6 702.33L224.21 702.33L224.21 702.33L224.21 135.75L224.21 135.75L42.6 135.75z" /></clipPath><clipPath id="45"><path id="" clip-rule="evenodd" transform="matrix(1 0 0 1 0 0)" d="M42.6 702.33L224.21 702.33L224.21 702.33L224.21 135.75L224.21 135.75L42.6 135.75z" /></clipPath><clipPath id="46"><path id="" clip-rule="evenodd" transform="matrix(1 0 0 1 0 0)" d="M42.6 702.33L224.21 702.33L224.21 702.33L224.21 135.75L224.21 135.75L42.6 135.75z" /></clipPath><clipPath id="47"><path id="" clip-rule="evenodd" transform="matrix(1 0 0 1 0 0)" d="M42.6 702.33L224.21 702.33L224.21 702.33L224.21 135.75L224.21 135.75L42.6 135.75z" /></clipPath><clipPath id="48"><path id="" clip-rule="evenodd" transform="matrix(1 0 0 1 0 0)" d="M42.6 702.33L224.21 702.33L224.21 702.33L224.21 135.75L224.21 135.75L42.6 135.75z" /></clipPath><clipPath id="49"><path id="" clip-rule="evenodd" transform="matrix(1 0 0 1 0 0)" d="M42.6 702.33L224.21 702.33L224.21 702.33L224.21 135.75L224.21 135.75L42.6 135.75z" /></clipPath><clipPath id="50"><path id="" clip-rule="evenodd" transform="matrix(1 0 0 1 0 0)" d="M42.6 702.33L224.21 702.33L224.21 702.33L224.21 135.75L224.21 135.75L42.6 135.75z" /></clipPath><clipPath id="51"><path id="" clip-rule="evenodd" transform="matrix(1 0 0 1 0 0)" d="M42.6 702.33L224.21 702.33L224.21 702.33L224.21 135.75L224.21 135.75L42.6 135.75z" /></clipPath><clipPath id="52"><path id="" clip-rule="evenodd" transform="matrix(1 0 0 1 0 0)" d="M42.6 702.33L224.21 702.33L224.21 702.33L224.21 135.75L224.21 135.75L42.6 135.75z" /></clipPath><clipPath id="53"><path id="" clip-rule="evenodd" transform="matrix(1 0 0 1 0 0)" d="M42.6 702.33L224.21 702.33L224.21 702.33L224.21 135.75L224.21 135.75L42.6 135.75z" /></clipPath><clipPath id="54"><path id="" clip-rule="evenodd" transform="matrix(1 0 0 1 0 0)" d="M42.6 702.33L224.21 702.33L224.21 702.33L224.21 135.75L224.21 135.75L42.6 135.75z" /></clipPath><clipPath id="55"><path id="" clip-rule="evenodd" transform="matrix(1 0 0 1 0 0)" d="M42.6 702.33L224.21 702.33L224.21 702.33L224.21 135.75L224.21 135.75L42.6 135.75z" /></clipPath><clipPath id="56"><path id="" clip-rule="evenodd" transform="matrix(1 0 0 1 0 0)" d="M42.6 702.33L224.21 702.33L224.21 702.33L224.21 135.75L224.21 135.75L42.6 135.75z" /></clipPath><clipPath id="57"><path id="" clip-rule="evenodd" transform="matrix(1 0 0 1 0 0)" d="M42.6 702.33L224.21 702.33L224.21 702.33L224.21 135.75L224.21 135.75L42.6 135.75z" /></clipPath><clipPath id="58"><path id="" clip-rule="evenodd" transform="matrix(1 0 0 1 0 0)" d="M42.6 702.33L224.21 702.33L224.21 702.33L224.21 135.75L224.21 135.75L42.6 135.75z" /></clipPath><clipPath id="59"><path id="" clip-rule="evenodd" transform="matrix(1 0 0 1 0 0)" d="M42.6 702.33L224.21 702.33L224.21 702.33L224.21 135.75L224.21 135.75L42.6 135.75z" /></clipPath><clipPath id="60"><path id="" clip-rule="evenodd" transform="matrix(1 0 0 1 0 0)" d="M42.6 702.33L224.21 702.33L224.21 702.33L224.21 135.75L224.21 135.75L42.6 135.75z" /></clipPath><clipPath id="61"><path id="" clip-rule="evenodd" transform="matrix(1 0 0 1 0 0)" d="M42.6 702.33L224.21 702.33L224.21 702.33L224.21 135.75L224.21 135.75L42.6 135.75z" /></clipPath><clipPath id="62"><path id="" clip-rule="evenodd" transform="matrix(1 0 0 1 0 0)" d="M42.6 702.33L224.21 702.33L224.21 702.33L224.21 135.75L224.21 135.75L42.6 135.75z" /></clipPath><clipPath id="63"><path id="" clip-rule="evenodd" transform="matrix(1 0 0 1 0 0)" d="M42.6 702.33L224.21 702.33L224.21 702.33L224.21 135.75L224.21 135.75L42.6 135.75z" /></clipPath><clipPath id="64"><path id="" clip-rule="evenodd" transform="matrix(1 0 0 1 0 0)" d="M42.6 702.33L224.21 702.33L224.21 702.33L224.21 135.75L224.21 135.75L42.6 135.75z" /></clipPath><clipPath id="65"><path id="" clip-rule="evenodd" transform="matrix(1 0 0 1 0 0)" d="M42.6 702.33L224.21 702.33L224.21 702.33L224.21 135.75L224.21 135.75L42.6 135.75z" /></clipPath><clipPath id="66"><path id="" clip-rule="evenodd" transform="matrix(1 0 0 1 0 0)" d="M42.6 702.33L224.21 702.33L224.21 702.33L224.21 135.75L224.21 135.75L42.6 135.75z" /></clipPath><clipPath id="67"><path id="" clip-rule="evenodd" transform="matrix(1 0 0 1 0 0)" d="M42.6 702.33L224.21 702.33L224.21 702.33L224.21 135.75L224.21 135.75L42.6 135.75z" /></clipPath><clipPath id="68"><path id="" clip-rule="evenodd" transform="matrix(1 0 0 1 0 0)" d="M42.6 702.33L224.21 702.33L224.21 702.33L224.21 135.75L224.21 135.75L42.6 135.75z" /></clipPath><clipPath id="69"><path id="" clip-rule="evenodd" transform="matrix(1 0 0 1 0 0)" d="M231.65 731.49L572.62 731.49L572.62 731.49L572.62 136.71L572.62 136.71L231.65 136.71z" /></clipPath><clipPath id="70"><path id="" clip-rule="evenodd" transform="matrix(1 0 0 1 0 0)" d="M231.65 731.49L572.62 731.49L572.62 731.49L572.62 136.71L572.62 136.71L231.65 136.71z" /></clipPath><clipPath id="71"><path id="" clip-rule="evenodd" transform="matrix(1 0 0 1 0 0)" d="M231.65 731.49L572.62 731.49L572.62 731.49L572.62 136.71L572.62 136.71L231.65 136.71z" /></clipPath><clipPath id="72"><path id="" clip-rule="evenodd" transform="matrix(1 0 0 1 0 0)" d="M231.65 731.49L572.62 731.49L572.62 731.49L572.62 136.71L572.62 136.71L231.65 136.71z" /></clipPath><clipPath id="73"><path id="" clip-rule="evenodd" transform="matrix(1 0 0 1 0 0)" d="M231.65 731.49L572.62 731.49L572.62 731.49L572.62 136.71L572.62 136.71L231.65 136.71z" /></clipPath><clipPath id="74"><path id="" clip-rule="evenodd" transform="matrix(1 0 0 1 0 0)" d="M231.65 731.49L572.62 731.49L572.62 731.49L572.62 136.71L572.62 136.71L231.65 136.71z" /></clipPath><clipPath id="75"><path id="" clip-rule="evenodd" transform="matrix(1 0 0 1 0 0)" d="M231.65 731.49L572.62 731.49L572.62 731.49L572.62 136.71L572.62 136.71L231.65 136.71z" /></clipPath><clipPath id="76"><path id="" clip-rule="evenodd" transform="matrix(1 0 0 1 0 0)" d="M231.65 731.49L572.62 731.49L572.62 731.49L572.62 136.71L572.62 136.71L231.65 136.71z" /></clipPath><clipPath id="77"><path id="" clip-rule="evenodd" transform="matrix(1 0 0 1 0 0)" d="M231.65 731.49L572.62 731.49L572.62 731.49L572.62 136.71L572.62 136.71L231.65 136.71z" /></clipPath><clipPath id="78"><path id="" clip-rule="evenodd" transform="matrix(1 0 0 1 0 0)" d="M231.65 731.49L572.62 731.49L572.62 731.49L572.62 136.71L572.62 136.71L231.65 136.71z" /></clipPath><clipPath id="79"><path id="" clip-rule="evenodd" transform="matrix(1 0 0 1 0 0)" d="M231.65 731.49L572.62 731.49L572.62 731.49L572.62 136.71L572.62 136.71L231.65 136.71z" /></clipPath><clipPath id="80"><path id="" clip-rule="evenodd" transform="matrix(1 0 0 1 0 0)" d="M231.65 731.49L572.62 731.49L572.62 731.49L572.62 136.71L572.62 136.71L231.65 136.71z" /></clipPath><clipPath id="81"><path id="" clip-rule="evenodd" transform="matrix(1 0 0 1 0 0)" d="M231.65 731.49L572.62 731.49L572.62 731.49L572.62 136.71L572.62 136.71L231.65 136.71z" /></clipPath><clipPath id="82"><path id="" clip-rule="evenodd" transform="matrix(1 0 0 1 0 0)" d="M231.65 731.49L572.62 731.49L572.62 731.49L572.62 136.71L572.62 136.71L231.65 136.71z" /></clipPath><clipPath id="83"><path id="" clip-rule="evenodd" transform="matrix(1 0 0 1 0 0)" d="M231.65 731.49L572.62 731.49L572.62 731.49L572.62 136.71L572.62 136.71L231.65 136.71z" /></clipPath><clipPath id="84"><path id="" clip-rule="evenodd" transform="matrix(1 0 0 1 0 0)" d="M231.65 731.49L572.62 731.49L572.62 731.49L572.62 136.71L572.62 136.71L231.65 136.71z" /></clipPath><clipPath id="85"><path id="" clip-rule="evenodd" transform="matrix(1 0 0 1 0 0)" d="M231.65 731.49L572.62 731.49L572.62 731.49L572.62 136.71L572.62 136.71L231.65 136.71z" /></clipPath><clipPath id="86"><path id="" clip-rule="evenodd" transform="matrix(1 0 0 1 0 0)" d="M231.65 731.49L572.62 731.49L572.62 731.49L572.62 136.71L572.62 136.71L231.65 136.71z" /></clipPath><clipPath id="87"><path id="" clip-rule="evenodd" transform="matrix(1 0 0 1 0 0)" d="M231.65 731.49L572.62 731.49L572.62 731.49L572.62 136.71L572.62 136.71L231.65 136.71z" /></clipPath><clipPath id="88"><path id="" clip-rule="evenodd" transform="matrix(1 0 0 1 0 0)" d="M231.65 731.49L572.62 731.49L572.62 731.49L572.62 136.71L572.62 136.71L231.65 136.71z" /></clipPath><clipPath id="89"><path id="" clip-rule="evenodd" transform="matrix(1 0 0 1 0 0)" d="M231.65 731.49L572.62 731.49L572.62 731.49L572.62 136.71L572.62 136.71L231.65 136.71z" /></clipPath><clipPath id="90"><path id="" clip-rule="evenodd" transform="matrix(1 0 0 1 0 0)" d="M231.65 731.49L572.62 731.49L572.62 731.49L572.62 136.71L572.62 136.71L231.65 136.71z" /></clipPath><clipPath id="91"><path id="" clip-rule="evenodd" transform="matrix(1 0 0 1 0 0)" d="M231.65 731.49L572.62 731.49L572.62 731.49L572.62 136.71L572.62 136.71L231.65 136.71z" /></clipPath><clipPath id="92"><path id="" clip-rule="evenodd" transform="matrix(1 0 0 1 0 0)" d="M231.65 731.49L572.62 731.49L572.62 731.49L572.62 136.71L572.62 136.71L231.65 136.71z" /></clipPath><clipPath id="93"><path id="" clip-rule="evenodd" transform="matrix(1 0 0 1 0 0)" d="M231.65 731.49L572.62 731.49L572.62 731.49L572.62 136.71L572.62 136.71L231.65 136.71z" /></clipPath><clipPath id="94"><path id="" clip-rule="evenodd" transform="matrix(1 0 0 1 0 0)" d="M231.65 731.49L572.62 731.49L572.62 731.49L572.62 136.71L572.62 136.71L231.65 136.71z" /></clipPath><clipPath id="95"><path id="" clip-rule="evenodd" transform="matrix(1 0 0 1 0 0)" d="M231.65 731.49L572.62 731.49L572.62 731.49L572.62 136.71L572.62 136.71L231.65 136.71z" /></clipPath><clipPath id="96"><path id="" clip-rule="evenodd" transform="matrix(1 0 0 1 0 0)" d="M231.65 731.49L572.62 731.49L572.62 731.49L572.62 136.71L572.62 136.71L231.65 136.71z" /></clipPath><clipPath id="97"><path id="" clip-rule="evenodd" transform="matrix(1 0 0 1 0 0)" d="M231.65 731.49L572.62 731.49L572.62 731.49L572.62 136.71L572.62 136.71L231.65 136.71z" /></clipPath><clipPath id="98"><path id="" clip-rule="evenodd" transform="matrix(1 0 0 1 0 0)" d="M231.65 731.49L572.62 731.49L572.62 731.49L572.62 136.71L572.62 136.71L231.65 136.71z" /></clipPath><clipPath id="99"><path id="" clip-rule="evenodd" transform="matrix(1 0 0 1 0 0)" d="M231.65 731.49L572.62 731.49L572.62 731.49L572.62 136.71L572.62 136.71L231.65 136.71z" /></clipPath><clipPath id="100"><path id="" clip-rule="evenodd" transform="matrix(1 0 0 1 0 0)" d="M231.65 731.49L572.62 731.49L572.62 731.49L572.62 136.71L572.62 136.71L231.65 136.71z" /></clipPath><clipPath id="101"><path id="" clip-rule="evenodd" transform="matrix(1 0 0 1 0 0)" d="M231.65 731.49L572.62 731.49L572.62 731.49L572.62 136.71L572.62 136.71L231.65 136.71z" /></clipPath><clipPath id="102"><path id="" clip-rule="evenodd" transform="matrix(1 0 0 1 0 0)" d="M231.65 731.49L572.62 731.49L572.62 731.49L572.62 136.71L572.62 136.71L231.65 136.71z" /></clipPath><clipPath id="103"><path id="" clip-rule="evenodd" transform="matrix(1 0 0 1 0 0)" d="M231.65 731.49L572.62 731.49L572.62 731.49L572.62 136.71L572.62 136.71L231.65 136.71z" /></clipPath><clipPath id="104"><path id="" clip-rule="evenodd" transform="matrix(1 0 0 1 0 0)" d="M231.65 731.49L572.62 731.49L572.62 731.49L572.62 136.71L572.62 136.71L231.65 136.71z" /></clipPath><clipPath id="105"><path id="" clip-rule="evenodd" transform="matrix(1 0 0 1 0 0)" d="M231.65 731.49L572.62 731.49L572.62 731.49L572.62 136.71L572.62 136.71L231.65 136.71z" /></clipPath><clipPath id="106"><path id="" clip-rule="evenodd" transform="matrix(1 0 0 1 0 0)" d="M231.65 731.49L572.62 731.49L572.62 731.49L572.62 136.71L572.62 136.71L231.65 136.71z" /></clipPath><clipPath id="107"><path id="" clip-rule="evenodd" transform="matrix(1 0 0 1 0 0)" d="M231.65 731.49L572.62 731.49L572.62 731.49L572.62 136.71L572.62 136.71L231.65 136.71z" /></clipPath><clipPath id="108"><path id="" clip-rule="evenodd" transform="matrix(1 0 0 1 0 0)" d="M231.65 731.49L572.62 731.49L572.62 731.49L572.62 136.71L572.62 136.71L231.65 136.71z" /></clipPath><clipPath id="109"><path id="" clip-rule="evenodd" transform="matrix(1 0 0 1 0 0)" d="M231.65 731.49L572.62 731.49L572.62 731.49L572.62 136.71L572.62 136.71L231.65 136.71z" /></clipPath><clipPath id="110"><path id="" clip-rule="evenodd" transform="matrix(1 0 0 1 0 0)" d="M231.65 731.49L572.62 731.49L572.62 731.49L572.62 136.71L572.62 136.71L231.65 136.71z" /></clipPath><clipPath id="111"><path id="" clip-rule="evenodd" transform="matrix(1 0 0 1 0 0)" d="M231.65 731.49L572.62 731.49L572.62 731.49L572.62 136.71L572.62 136.71L231.65 136.71z" /></clipPath><clipPath id="112"><path id="" clip-rule="evenodd" transform="matrix(1 0 0 1 0 0)" d="M231.65 731.49L572.62 731.49L572.62 731.49L572.62 136.71L572.62 136.71L231.65 136.71z" /></clipPath><clipPath id="113"><path id="" clip-rule="evenodd" transform="matrix(1 0 0 1 0 0)" d="M231.65 731.49L572.62 731.49L572.62 731.49L572.62 136.71L572.62 136.71L231.65 136.71z" /></clipPath><clipPath id="114"><path id="" clip-rule="evenodd" transform="matrix(1 0 0 1 0 0)" d="M231.65 731.49L572.62 731.49L572.62 731.49L572.62 136.71L572.62 136.71L231.65 136.71z" /></clipPath><clipPath id="115"><path id="" clip-rule="evenodd" transform="matrix(1 0 0 1 0 0)" d="M231.65 731.49L572.62 731.49L572.62 731.49L572.62 136.71L572.62 136.71L231.65 136.71z" /></clipPath><clipPath id="116"><path id="" clip-rule="evenodd" transform="matrix(1 0 0 1 0 0)" d="M231.65 731.49L572.62 731.49L572.62 731.49L572.62 136.71L572.62 136.71L231.65 136.71z" /></clipPath><clipPath id="117"><path id="" clip-rule="evenodd" transform="matrix(1 0 0 1 0 0)" d="M231.65 731.49L572.62 731.49L572.62 731.49L572.62 136.71L572.62 136.71L231.65 136.71z" /></clipPath><clipPath id="118"><path id="" clip-rule="evenodd" transform="matrix(1 0 0 1 0 0)" d="M231.65 731.49L572.62 731.49L572.62 731.49L572.62 136.71L572.62 136.71L231.65 136.71z" /></clipPath><clipPath id="119"><path id="" clip-rule="evenodd" transform="matrix(1 0 0 1 0 0)" d="M231.65 731.49L572.62 731.49L572.62 731.49L572.62 136.71L572.62 136.71L231.65 136.71z" /></clipPath><clipPath id="120"><path id="" clip-rule="evenodd" transform="matrix(1 0 0 1 0 0)" d="M231.65 731.49L572.62 731.49L572.62 731.49L572.62 136.71L572.62 136.71L231.65 136.71z" /></clipPath><clipPath id="121"><path id="" clip-rule="evenodd" transform="matrix(1 0 0 1 0 0)" d="M231.65 731.49L572.62 731.49L572.62 731.49L572.62 136.71L572.62 136.71L231.65 136.71z" /></clipPath><clipPath id="122"><path id="" clip-rule="evenodd" transform="matrix(1 0 0 1 0 0)" d="M231.65 731.49L572.62 731.49L572.62 731.49L572.62 136.71L572.62 136.71L231.65 136.71z" /></clipPath><clipPath id="123"><path id="" clip-rule="evenodd" transform="matrix(1 0 0 1 0 0)" d="M231.65 731.49L572.62 731.49L572.62 731.49L572.62 136.71L572.62 136.71L231.65 136.71z" /></clipPath><clipPath id="124"><path id="" clip-rule="evenodd" transform="matrix(1 0 0 1 0 0)" d="M231.65 731.49L572.62 731.49L572.62 731.49L572.62 136.71L572.62 136.71L231.65 136.71z" /></clipPath><clipPath id="125"><path id="" clip-rule="evenodd" transform="matrix(1 0 0 1 0 0)" d="M231.65 731.49L572.62 731.49L572.62 731.49L572.62 136.71L572.62 136.71L231.65 136.71z" /></clipPath><clipPath id="126"><path id="" clip-rule="evenodd" transform="matrix(1 0 0 1 0 0)" d="M231.65 731.49L572.62 731.49L572.62 731.49L572.62 136.71L572.62 136.71L231.65 136.71z" /></clipPath><clipPath id="127"><path id="" clip-rule="evenodd" transform="matrix(1 0 0 1 0 0)" d="M231.65 731.49L572.62 731.49L572.62 731.49L572.62 136.71L572.62 136.71L231.65 136.71z" /></clipPath><clipPath id="128"><path id="" clip-rule="evenodd" transform="matrix(1 0 0 1 0 0)" d="M231.65 731.49L572.62 731.49L572.62 731.49L572.62 136.71L572.62 136.71L231.65 136.71z" /></clipPath><clipPath id="129"><path id="" clip-rule="evenodd" transform="matrix(1 0 0 1 0 0)" d="M231.65 731.49L572.62 731.49L572.62 731.49L572.62 136.71L572.62 136.71L231.65 136.71z" /></clipPath><clipPath id="130"><path id="" clip-rule="evenodd" transform="matrix(1 0 0 1 0 0)" d="M231.65 731.49L572.62 731.49L572.62 731.49L572.62 136.71L572.62 136.71L231.65 136.71z" /></clipPath><clipPath id="131"><path id="" clip-rule="evenodd" transform="matrix(1 0 0 1 0 0)" d="M231.65 731.49L572.62 731.49L572.62 731.49L572.62 136.71L572.62 136.71L231.65 136.71z" /></clipPath><clipPath id="132"><path id="" clip-rule="evenodd" transform="matrix(1 0 0 1 0 0)" d="M231.65 731.49L572.62 731.49L572.62 731.49L572.62 136.71L572.62 136.71L231.65 136.71z" /></clipPath><clipPath id="133"><path id="" clip-rule="evenodd" transform="matrix(1 0 0 1 0 0)" d="M231.65 731.49L572.62 731.49L572.62 731.49L572.62 136.71L572.62 136.71L231.65 136.71z" /></clipPath><clipPath id="134"><path id="" clip-rule="evenodd" transform="matrix(1 0 0 1 0 0)" d="M231.65 731.49L572.62 731.49L572.62 731.49L572.62 136.71L572.62 136.71L231.65 136.71z" /></clipPath><clipPath id="135"><path id="" clip-rule="evenodd" transform="matrix(1 0 0 1 0 0)" d="M231.65 731.49L572.62 731.49L572.62 731.49L572.62 136.71L572.62 136.71L231.65 136.71z" /></clipPath><clipPath id="136"><path id="" clip-rule="evenodd" transform="matrix(1 0 0 1 0 0)" d="M231.65 731.49L572.62 731.49L572.62 731.49L572.62 136.71L572.62 136.71L231.65 136.71z" /></clipPath><clipPath id="137"><path id="" clip-rule="evenodd" transform="matrix(1 0 0 1 0 0)" d="M231.65 731.49L572.62 731.49L572.62 731.49L572.62 136.71L572.62 136.71L231.65 136.71z" /></clipPath><clipPath id="138"><path id="" clip-rule="evenodd" transform="matrix(1 0 0 1 0 0)" d="M231.65 731.49L572.62 731.49L572.62 731.49L572.62 136.71L572.62 136.71L231.65 136.71z" /></clipPath><clipPath id="139"><path id="" clip-rule="evenodd" transform="matrix(1 0 0 1 0 0)" d="M231.65 731.49L572.62 731.49L572.62 731.49L572.62 136.71L572.62 136.71L231.65 136.71z" /></clipPath><clipPath id="140"><path id="" clip-rule="evenodd" transform="matrix(1 0 0 1 0 0)" d="M231.65 731.49L572.62 731.49L572.62 731.49L572.62 136.71L572.62 136.71L231.65 136.71z" /></clipPath><clipPath id="141"><path id="" clip-rule="evenodd" transform="matrix(1 0 0 1 0 0)" d="M231.65 731.49L572.62 731.49L572.62 731.49L572.62 136.71L572.62 136.71L231.65 136.71z" /></clipPath><clipPath id="142"><path id="" clip-rule="evenodd" transform="matrix(1 0 0 1 0 0)" d="M231.65 731.49L572.62 731.49L572.62 731.49L572.62 136.71L572.62 136.71L231.65 136.71z" /></clipPath><clipPath id="143"><path id="" clip-rule="evenodd" transform="matrix(1 0 0 1 0 0)" d="M231.65 731.49L572.62 731.49L572.62 731.49L572.62 136.71L572.62 136.71L231.65 136.71z" /></clipPath><clipPath id="144"><path id="" clip-rule="evenodd" transform="matrix(1 0 0 1 0 0)" d="M231.65 731.49L572.62 731.49L572.62 731.49L572.62 136.71L572.62 136.71L231.65 136.71z" /></clipPath><clipPath id="145"><path id="" clip-rule="evenodd" transform="matrix(1 0 0 1 0 0)" d="M231.65 731.49L572.62 731.49L572.62 731.49L572.62 136.71L572.62 136.71L231.65 136.71z" /></clipPath><clipPath id="146"><path id="" clip-rule="evenodd" transform="matrix(1 0 0 1 0 0)" d="M231.65 731.49L572.62 731.49L572.62 731.49L572.62 136.71L572.62 136.71L231.65 136.71z" /></clipPath><clipPath id="147"><path id="" clip-rule="evenodd" transform="matrix(1 0 0 1 0 0)" d="M231.65 731.49L572.62 731.49L572.62 731.49L572.62 136.71L572.62 136.71L231.65 136.71z" /></clipPath><clipPath id="148"><path id="" clip-rule="evenodd" transform="matrix(1 0 0 1 0 0)" d="M231.65 731.49L572.62 731.49L572.62 731.49L572.62 136.71L572.62 136.71L231.65 136.71z" /></clipPath><clipPath id="149"><path id="" clip-rule="evenodd" transform="matrix(1 0 0 1 0 0)" d="M231.65 731.49L572.62 731.49L572.62 731.49L572.62 136.71L572.62 136.71L231.65 136.71z" /></clipPath><clipPath id="150"><path id="" clip-rule="evenodd" transform="matrix(1 0 0 1 0 0)" d="M231.65 731.49L572.62 731.49L572.62 731.49L572.62 136.71L572.62 136.71L231.65 136.71z" /></clipPath><clipPath id="151"><path id="" clip-rule="evenodd" transform="matrix(1 0 0 1 0 0)" d="M231.65 731.49L572.62 731.49L572.62 731.49L572.62 136.71L572.62 136.71L231.65 136.71z" /></clipPath><clipPath id="152"><path id="" clip-rule="evenodd" transform="matrix(1 0 0 1 0 0)" d="M231.65 731.49L572.62 731.49L572.62 731.49L572.62 136.71L572.62 136.71L231.65 136.71z" /></clipPath><clipPath id="153"><path id="" clip-rule="evenodd" transform="matrix(1 0 0 1 0 0)" d="M231.65 731.49L572.62 731.49L572.62 731.49L572.62 136.71L572.62 136.71L231.65 136.71z" /></clipPath><clipPath id="154"><path id="" clip-rule="evenodd" transform="matrix(1 0 0 1 0 0)" d="M231.65 731.49L572.62 731.49L572.62 731.49L572.62 136.71L572.62 136.71L231.65 136.71z" /></clipPath><clipPath id="155"><path id="" clip-rule="evenodd" transform="matrix(1 0 0 1 0 0)" d="M231.65 731.49L572.62 731.49L572.62 731.49L572.62 136.71L572.62 136.71L231.65 136.71z" /></clipPath><clipPath id="156"><path id="" clip-rule="evenodd" transform="matrix(1 0 0 1 0 0)" d="M231.65 731.49L572.62 731.49L572.62 731.49L572.62 136.71L572.62 136.71L231.65 136.71z" /></clipPath><clipPath id="157"><path id="" clip-rule="evenodd" transform="matrix(1 0 0 1 0 0)" d="M231.65 731.49L572.62 731.49L572.62 731.49L572.62 136.71L572.62 136.71L231.65 136.71z" /></clipPath><clipPath id="158"><path id="" clip-rule="evenodd" transform="matrix(1 0 0 1 0 0)" d="M231.65 731.49L572.62 731.49L572.62 731.49L572.62 136.71L572.62 136.71L231.65 136.71z" /></clipPath><clipPath id="159"><path id="" clip-rule="evenodd" transform="matrix(1 0 0 1 0 0)" d="M231.65 731.49L572.62 731.49L572.62 731.49L572.62 136.71L572.62 136.71L231.65 136.71z" /></clipPath><clipPath id="160"><path id="" clip-rule="evenodd" transform="matrix(1 0 0 1 0 0)" d="M231.65 731.49L572.62 731.49L572.62 731.49L572.62 136.71L572.62 136.71L231.65 136.71z" /></clipPath><clipPath id="161"><path id="" clip-rule="evenodd" transform="matrix(1 0 0 1 0 0)" d="M231.65 731.49L572.62 731.49L572.62 731.49L572.62 136.71L572.62 136.71L231.65 136.71z" /></clipPath><clipPath id="162"><path id="" clip-rule="evenodd" transform="matrix(1 0 0 1 0 0)" d="M231.65 731.49L572.62 731.49L572.62 731.49L572.62 136.71L572.62 136.71L231.65 136.71z" /></clipPath><clipPath id="163"><path id="" clip-rule="evenodd" transform="matrix(1 0 0 1 0 0)" d="M231.65 731.49L572.62 731.49L572.62 731.49L572.62 136.71L572.62 136.71L231.65 136.71z" /></clipPath><clipPath id="164"><path id="" clip-rule="evenodd" transform="matrix(1 0 0 1 0 0)" d="M231.65 731.49L572.62 731.49L572.62 731.49L572.62 136.71L572.62 136.71L231.65 136.71z" /></clipPath><clipPath id="165"><path id="" clip-rule="evenodd" transform="matrix(1 0 0 1 0 0)" d="M231.65 731.49L572.62 731.49L572.62 731.49L572.62 136.71L572.62 136.71L231.65 136.71z" /></clipPath><clipPath id="166"><path id="" clip-rule="evenodd" transform="matrix(1 0 0 1 0 0)" d="M231.65 731.49L572.62 731.49L572.62 731.49L572.62 136.71L572.62 136.71L231.65 136.71z" /></clipPath><clipPath id="167"><path id="" clip-rule="evenodd" transform="matrix(1 0 0 1 0 0)" d="M231.65 731.49L572.62 731.49L572.62 731.49L572.62 136.71L572.62 136.71L231.65 136.71z" /></clipPath><clipPath id="168"><path id="" clip-rule="evenodd" transform="matrix(1 0 0 1 0 0)" d="M231.65 731.49L572.62 731.49L572.62 731.49L572.62 136.71L572.62 136.71L231.65 136.71z" /></clipPath><clipPath id="169"><path id="" clip-rule="evenodd" transform="matrix(1 0 0 1 0 0)" d="M231.65 731.49L572.62 731.49L572.62 731.49L572.62 136.71L572.62 136.71L231.65 136.71z" /></clipPath><clipPath id="170"><path id="" clip-rule="evenodd" transform="matrix(1 0 0 1 0 0)" d="M231.65 731.49L572.62 731.49L572.62 731.49L572.62 136.71L572.62 136.71L231.65 136.71z" /></clipPath><clipPath id="171"><path id="" clip-rule="evenodd" transform="matrix(1 0 0 1 0 0)" d="M231.65 731.49L572.62 731.49L572.62 731.49L572.62 136.71L572.62 136.71L231.65 136.71z" /></clipPath><clipPath id="172"><path id="" clip-rule="evenodd" transform="matrix(1 0 0 1 0 0)" d="M231.65 731.49L572.62 731.49L572.62 731.49L572.62 136.71L572.62 136.71L231.65 136.71z" /></clipPath><clipPath id="173"><path id="" clip-rule="evenodd" transform="matrix(1 0 0 1 0 0)" d="M231.65 731.49L572.62 731.49L572.62 731.49L572.62 136.71L572.62 136.71L231.65 136.71z" /></clipPath><clipPath id="174"><path id="" clip-rule="evenodd" transform="matrix(1 0 0 1 0 0)" d="M231.65 731.49L572.62 731.49L572.62 731.49L572.62 136.71L572.62 136.71L231.65 136.71z" /></clipPath><clipPath id="175"><path id="" clip-rule="evenodd" transform="matrix(1 0 0 1 0 0)" d="M231.65 731.49L572.62 731.49L572.62 731.49L572.62 136.71L572.62 136.71L231.65 136.71z" /></clipPath><clipPath id="176"><path id="" clip-rule="evenodd" transform="matrix(1 0 0 1 0 0)" d="M231.65 731.49L572.62 731.49L572.62 731.49L572.62 136.71L572.62 136.71L231.65 136.71z" /></clipPath><clipPath id="177"><path id="" clip-rule="evenodd" transform="matrix(1 0 0 1 0 0)" d="M231.65 731.49L572.62 731.49L572.62 731.49L572.62 136.71L572.62 136.71L231.65 136.71z" /></clipPath><clipPath id="178"><path id="" clip-rule="evenodd" transform="matrix(1 0 0 1 0 0)" d="M231.65 731.49L572.62 731.49L572.62 731.49L572.62 136.71L572.62 136.71L231.65 136.71z" /></clipPath><clipPath id="179"><path id="" clip-rule="evenodd" transform="matrix(1 0 0 1 0 0)" d="M231.65 731.49L572.62 731.49L572.62 731.49L572.62 136.71L572.62 136.71L231.65 136.71z" /></clipPath><clipPath id="180"><path id="" clip-rule="evenodd" transform="matrix(1 0 0 1 0 0)" d="M231.65 731.49L572.62 731.49L572.62 731.49L572.62 136.71L572.62 136.71L231.65 136.71z" /></clipPath><clipPath id="181"><path id="" clip-rule="evenodd" transform="matrix(1 0 0 1 0 0)" d="M231.65 731.49L572.62 731.49L572.62 731.49L572.62 136.71L572.62 136.71L231.65 136.71z" /></clipPath><clipPath id="182"><path id="" clip-rule="evenodd" transform="matrix(1 0 0 1 0 0)" d="M231.65 731.49L572.62 731.49L572.62 731.49L572.62 136.71L572.62 136.71L231.65 136.71z" /></clipPath><clipPath id="183"><path id="" clip-rule="evenodd" transform="matrix(1 0 0 1 0 0)" d="M231.65 731.49L572.62 731.49L572.62 731.49L572.62 136.71L572.62 136.71L231.65 136.71z" /></clipPath><clipPath id="184"><path id="" clip-rule="evenodd" transform="matrix(1 0 0 1 0 0)" d="M231.65 731.49L572.62 731.49L572.62 731.49L572.62 136.71L572.62 136.71L231.65 136.71z" /></clipPath><clipPath id="185"><path id="" clip-rule="evenodd" transform="matrix(1 0 0 1 0 0)" d="M231.65 731.49L572.62 731.49L572.62 731.49L572.62 136.71L572.62 136.71L231.65 136.71z" /></clipPath><clipPath id="186"><path id="" clip-rule="evenodd" transform="matrix(1 0 0 1 0 0)" d="M231.65 731.49L572.62 731.49L572.62 731.49L572.62 136.71L572.62 136.71L231.65 136.71z" /></clipPath><clipPath id="187"><path id="" clip-rule="evenodd" transform="matrix(1 0 0 1 0 0)" d="M231.65 731.49L572.62 731.49L572.62 731.49L572.62 136.71L572.62 136.71L231.65 136.71z" /></clipPath><clipPath id="188"><path id="" clip-rule="evenodd" transform="matrix(1 0 0 1 0 0)" d="M231.65 731.49L572.62 731.49L572.62 731.49L572.62 136.71L572.62 136.71L231.65 136.71z" /></clipPath><clipPath id="189"><path id="" clip-rule="evenodd" transform="matrix(1 0 0 1 0 0)" d="M231.65 731.49L572.62 731.49L572.62 731.49L572.62 136.71L572.62 136.71L231.65 136.71z" /></clipPath><clipPath id="190"><path id="" clip-rule="evenodd" transform="matrix(1 0 0 1 0 0)" d="M231.65 731.49L572.62 731.49L572.62 731.49L572.62 136.71L572.62 136.71L231.65 136.71z" /></clipPath><clipPath id="191"><path id="" clip-rule="evenodd" transform="matrix(1 0 0 1 0 0)" d="M231.65 731.49L572.62 731.49L572.62 731.49L572.62 136.71L572.62 136.71L231.65 136.71z" /></clipPath><clipPath id="192"><path id="" clip-rule="evenodd" transform="matrix(1 0 0 1 0 0)" d="M231.65 731.49L572.62 731.49L572.62 731.49L572.62 136.71L572.62 136.71L231.65 136.71z" /></clipPath><clipPath id="193"><path id="" clip-rule="evenodd" transform="matrix(1 0 0 1 0 0)" d="M231.65 731.49L572.62 731.49L572.62 731.49L572.62 136.71L572.62 136.71L231.65 136.71z" /></clipPath><clipPath id="194"><path id="" clip-rule="evenodd" transform="matrix(1 0 0 1 0 0)" d="M231.65 731.49L572.62 731.49L572.62 731.49L572.62 136.71L572.62 136.71L231.65 136.71z" /></clipPath><clipPath id="195"><path id="" clip-rule="evenodd" transform="matrix(1 0 0 1 0 0)" d="M231.65 731.49L572.62 731.49L572.62 731.49L572.62 136.71L572.62 136.71L231.65 136.71z" /></clipPath><clipPath id="196"><path id="" clip-rule="evenodd" transform="matrix(1 0 0 1 0 0)" d="M231.65 731.49L572.62 731.49L572.62 731.49L572.62 136.71L572.62 136.71L231.65 136.71z" /></clipPath><clipPath id="197"><path id="" clip-rule="evenodd" transform="matrix(1 0 0 1 0 0)" d="M231.65 731.49L572.62 731.49L572.62 731.49L572.62 136.71L572.62 136.71L231.65 136.71z" /></clipPath><clipPath id="198"><path id="" clip-rule="evenodd" transform="matrix(1 0 0 1 0 0)" d="M231.65 731.49L572.62 731.49L572.62 731.49L572.62 136.71L572.62 136.71L231.65 136.71z" /></clipPath><clipPath id="199"><path id="" clip-rule="evenodd" transform="matrix(1 0 0 1 0 0)" d="M231.65 731.49L572.62 731.49L572.62 731.49L572.62 136.71L572.62 136.71L231.65 136.71z" /></clipPath><clipPath id="200"><path id="" clip-rule="evenodd" transform="matrix(1 0 0 1 0 0)" d="M231.65 731.49L572.62 731.49L572.62 731.49L572.62 136.71L572.62 136.71L231.65 136.71z" /></clipPath><clipPath id="201"><path id="" clip-rule="evenodd" transform="matrix(1 0 0 1 0 0)" d="M231.65 731.49L572.62 731.49L572.62 731.49L572.62 136.71L572.62 136.71L231.65 136.71z" /></clipPath><clipPath id="202"><path id="" clip-rule="evenodd" transform="matrix(1 0 0 1 0 0)" d="M231.65 731.49L572.62 731.49L572.62 731.49L572.62 136.71L572.62 136.71L231.65 136.71z" /></clipPath><clipPath id="203"><path id="" clip-rule="evenodd" transform="matrix(1 0 0 1 0 0)" d="M231.65 731.49L572.62 731.49L572.62 731.49L572.62 136.71L572.62 136.71L231.65 136.71z" /></clipPath><clipPath id="204"><path id="" clip-rule="evenodd" transform="matrix(1 0 0 1 0 0)" d="M231.65 731.49L572.62 731.49L572.62 731.49L572.62 136.71L572.62 136.71L231.65 136.71z" /></clipPath><clipPath id="205"><path id="" clip-rule="evenodd" transform="matrix(1 0 0 1 0 0)" d="M231.65 731.49L572.62 731.49L572.62 731.49L572.62 136.71L572.62 136.71L231.65 136.71z" /></clipPath><clipPath id="206"><path id="" clip-rule="evenodd" transform="matrix(1 0 0 1 0 0)" d="M231.65 731.49L572.62 731.49L572.62 731.49L572.62 136.71L572.62 136.71L231.65 136.71z" /></clipPath><clipPath id="207"><path id="" clip-rule="evenodd" transform="matrix(1 0 0 1 0 0)" d="M231.65 731.49L572.62 731.49L572.62 731.49L572.62 136.71L572.62 136.71L231.65 136.71z" /></clipPath><clipPath id="208"><path id="" clip-rule="evenodd" transform="matrix(1 0 0 1 0 0)" d="M231.65 731.49L572.62 731.49L572.62 731.49L572.62 136.71L572.62 136.71L231.65 136.71z" /></clipPath><clipPath id="209"><path id="" clip-rule="evenodd" transform="matrix(1 0 0 1 0 0)" d="M231.65 731.49L572.62 731.49L572.62 731.49L572.62 136.71L572.62 136.71L231.65 136.71z" /></clipPath><clipPath id="210"><path id="" clip-rule="evenodd" transform="matrix(1 0 0 1 0 0)" d="M231.65 731.49L572.62 731.49L572.62 731.49L572.62 136.71L572.62 136.71L231.65 136.71z" /></clipPath><clipPath id="211"><path id="" clip-rule="evenodd" transform="matrix(1 0 0 1 0 0)" d="M231.65 731.49L572.62 731.49L572.62 731.49L572.62 136.71L572.62 136.71L231.65 136.71z" /></clipPath><clipPath id="212"><path id="" clip-rule="evenodd" transform="matrix(1 0 0 1 0 0)" d="M231.65 731.49L572.62 731.49L572.62 731.49L572.62 136.71L572.62 136.71L231.65 136.71z" /></clipPath><clipPath id="213"><path id="" clip-rule="evenodd" transform="matrix(1 0 0 1 0 0)" d="M231.65 731.49L572.62 731.49L572.62 731.49L572.62 136.71L572.62 136.71L231.65 136.71z" /></clipPath><clipPath id="214"><path id="" clip-rule="evenodd" transform="matrix(1 0 0 1 0 0)" d="M231.65 731.49L572.62 731.49L572.62 731.49L572.62 136.71L572.62 136.71L231.65 136.71z" /></clipPath><clipPath id="215"><path id="" clip-rule="evenodd" transform="matrix(1 0 0 1 0 0)" d="M231.65 731.49L572.62 731.49L572.62 731.49L572.62 136.71L572.62 136.71L231.65 136.71z" /></clipPath><clipPath id="216"><path id="" clip-rule="evenodd" transform="matrix(1 0 0 1 0 0)" d="M231.65 731.49L572.62 731.49L572.62 731.49L572.62 136.71L572.62 136.71L231.65 136.71z" /></clipPath><clipPath id="217"><path id="" clip-rule="evenodd" transform="matrix(1 0 0 1 0 0)" d="M231.65 731.49L572.62 731.49L572.62 731.49L572.62 136.71L572.62 136.71L231.65 136.71z" /></clipPath><clipPath id="218"><path id="" clip-rule="evenodd" transform="matrix(1 0 0 1 0 0)" d="M231.65 731.49L572.62 731.49L572.62 731.49L572.62 136.71L572.62 136.71L231.65 136.71z" /></clipPath><clipPath id="219"><path id="" clip-rule="evenodd" transform="matrix(1 0 0 1 0 0)" d="M231.65 731.49L572.62 731.49L572.62 731.49L572.62 136.71L572.62 136.71L231.65 136.71z" /></clipPath><clipPath id="220"><path id="" clip-rule="evenodd" transform="matrix(1 0 0 1 0 0)" d="M231.65 731.49L572.62 731.49L572.62 731.49L572.62 136.71L572.62 136.71L231.65 136.71z" /></clipPath><clipPath id="221"><path id="" clip-rule="evenodd" transform="matrix(1 0 0 1 0 0)" d="M231.65 731.49L572.62 731.49L572.62 731.49L572.62 136.71L572.62 136.71L231.65 136.71z" /></clipPath><clipPath id="222"><path id="" clip-rule="evenodd" transform="matrix(1 0 0 1 0 0)" d="M231.65 731.49L572.62 731.49L572.62 731.49L572.62 136.71L572.62 136.71L231.65 136.71z" /></clipPath><clipPath id="223"><path id="" clip-rule="evenodd" transform="matrix(1 0 0 1 0 0)" d="M231.65 731.49L572.62 731.49L572.62 731.49L572.62 136.71L572.62 136.71L231.65 136.71z" /></clipPath><clipPath id="224"><path id="" clip-rule="evenodd" transform="matrix(1 0 0 1 0 0)" d="M231.65 731.49L572.62 731.49L572.62 731.49L572.62 136.71L572.62 136.71L231.65 136.71z" /></clipPath><clipPath id="225"><path id="" clip-rule="evenodd" transform="matrix(1 0 0 1 0 0)" d="M231.65 731.49L572.62 731.49L572.62 731.49L572.62 136.71L572.62 136.71L231.65 136.71z" /></clipPath><clipPath id="226"><path id="" clip-rule="evenodd" transform="matrix(1 0 0 1 0 0)" d="M231.65 731.49L572.62 731.49L572.62 731.49L572.62 136.71L572.62 136.71L231.65 136.71z" /></clipPath><clipPath id="227"><path id="" clip-rule="evenodd" transform="matrix(1 0 0 1 0 0)" d="M231.65 731.49L572.62 731.49L572.62 731.49L572.62 136.71L572.62 136.71L231.65 136.71z" /></clipPath><clipPath id="228"><path id="" clip-rule="evenodd" transform="matrix(1 0 0 1 0 0)" d="M231.65 731.49L572.62 731.49L572.62 731.49L572.62 136.71L572.62 136.71L231.65 136.71z" /></clipPath><clipPath id="229"><path id="" clip-rule="evenodd" transform="matrix(1 0 0 1 0 0)" d="M231.65 731.49L572.62 731.49L572.62 731.49L572.62 136.71L572.62 136.71L231.65 136.71z" /></clipPath></defs><g transform="matrix(1.333333 0 0 1.333333 0 0)"><g clip-path="url(#1)"><path id="17" transform="matrix(1 0 0 -1 0 792)" d="M-35.16 760.2L663.96 760.2L663.96 760.2L663.96 797.04L663.96 797.04L-35.16 797.04z" stroke="none" fill="#0295A8" fill-rule="evenodd" /><path id="18" transform="matrix(1 0 0 -1 0 792)" d="M45.48 680.64L570.53 679.99" stroke="#BFBFBF" stroke-width="0.48" fill="none" /><path id="19" transform="matrix(1 0 0 -1 0 792)" d="M42.6 75.36L224.16 75.36L224.16 75.36L224.16 670.68L224.16 670.68L42.6 670.68z" stroke="none" fill="#D6DCE5" fill-rule="evenodd" fill-opacity="0.3490196" /><g clip-path="url(#2)"></g><g clip-path="url(#3)"></g><g clip-path="url(#4)"></g><g clip-path="url(#5)"></g><g clip-path="url(#6)"></g><g clip-path="url(#7)"></g><g clip-path="url(#8)"></g><g clip-path="url(#9)"></g><g clip-path="url(#10)"></g><g clip-path="url(#11)"></g><g clip-path="url(#12)"></g><g clip-path="url(#13)"></g><g clip-path="url(#14)"></g><g clip-path="url(#15)"></g><g clip-path="url(#16)"></g><g clip-path="url(#17)"></g><g clip-path="url(#18)"></g><g clip-path="url(#19)"></g><g clip-path="url(#20)"></g><g clip-path="url(#21)"></g><g clip-path="url(#22)"></g><g clip-path="url(#23)"></g><g clip-path="url(#24)"></g><g clip-path="url(#25)"></g><g clip-path="url(#26)"></g><g clip-path="url(#27)"></g><g clip-path="url(#28)"></g><g clip-path="url(#29)"></g><g clip-path="url(#30)"></g><g clip-path="url(#31)"></g><g clip-path="url(#32)"></g><g clip-path="url(#33)"></g><g clip-path="url(#34)"></g><g clip-path="url(#35)"></g><g clip-path="url(#36)"></g><g clip-path="url(#37)"></g><g clip-path="url(#38)"></g><g clip-path="url(#39)"></g><g clip-path="url(#40)"></g><g clip-path="url(#41)"></g><g clip-path="url(#42)"></g><g clip-path="url(#43)"></g><g clip-path="url(#44)"></g><g clip-path="url(#45)"></g><g clip-path="url(#46)"></g><g clip-path="url(#47)"></g><g clip-path="url(#48)"></g><g clip-path="url(#49)"></g><g clip-path="url(#50)"></g><g clip-path="url(#51)"></g><g clip-path="url(#52)"></g><g clip-path="url(#53)"></g><g clip-path="url(#54)"></g><g clip-path="url(#55)"></g><g clip-path="url(#56)"></g><g clip-path="url(#57)"></g><g clip-path="url(#58)"></g><g clip-path="url(#59)"></g><g clip-path="url(#60)"></g><g clip-path="url(#61)"></g><g clip-path="url(#62)"></g><g clip-path="url(#63)"></g><g clip-path="url(#64)"></g><g clip-path="url(#65)"></g><g clip-path="url(#66)"></g><g clip-path="url(#67)"></g><g clip-path="url(#68)"></g><path id="327" transform="matrix(1 0 0 -1 0 792)" d="M57.72 633.12L202.52 633.12" stroke="#BFBFBF" stroke-width="0.48" fill="none" /><path id="328" transform="matrix(1 0 0 -1 0 792)" d="M57.72 337.56L204.12 337.56" stroke="#BFBFBF" stroke-width="0.48" fill="none" /><path id="329" transform="matrix(1 0 0 -1 0 792)" d="M144.6 323.4C 144.6 325.72 146.51 327.6 148.86 327.6C 151.21 327.6 153.12 325.72 153.12 323.4C 153.12 321.08 151.21 319.2 148.86 319.2C 146.51 319.2 144.6 321.08 144.6 323.4z" stroke="none" fill="#0295A8" fill-rule="evenodd" /><path id="330" transform="matrix(1 0 0 -1 0 792)" d="M154.56 323.34C 154.56 325.69 156.47 327.6 158.82 327.6C 161.17 327.6 163.08 325.69 163.08 323.34C 163.08 320.99 161.17 319.08 158.82 319.08C 156.47 319.08 154.56 320.99 154.56 323.34z" stroke="none" fill="#0295A8" fill-rule="evenodd" /><path id="331" transform="matrix(1 0 0 -1 0 792)" d="M164.88 323.4C 164.88 325.72 166.79 327.6 169.14 327.6C 171.49 327.6 173.4 325.72 173.4 323.4C 173.4 321.08 171.49 319.2 169.14 319.2C 166.79 319.2 164.88 321.08 164.88 323.4z" stroke="none" fill="#0295A8" fill-rule="evenodd" /><path id="332" transform="matrix(1 0 0 -1 0 792)" d="M174.84 323.34C 174.84 325.69 176.75 327.6 179.1 327.6C 181.45 327.6 183.36 325.69 183.36 323.34C 183.36 320.99 181.45 319.08 179.1 319.08C 176.75 319.08 174.84 320.99 174.84 323.34z" stroke="none" fill="#0295A8" fill-rule="evenodd" /><path id="333" transform="matrix(1 0 0 -1 0 792)" d="M184.68 323.34C 184.68 325.69 186.59 327.6 188.94 327.6C 191.29 327.6 193.2 325.69 193.2 323.34C 193.2 320.99 191.29 319.08 188.94 319.08C 186.59 319.08 184.68 320.99 184.68 323.34z" stroke="none" fill="#BFBFBF" fill-rule="evenodd" /><g clip-path="url(#69)"></g><g clip-path="url(#70)"></g><g clip-path="url(#71)"></g><g clip-path="url(#72)"></g><g clip-path="url(#73)"></g><g clip-path="url(#74)"></g><g clip-path="url(#75)"></g><g clip-path="url(#76)"></g><g clip-path="url(#77)"></g><g clip-path="url(#78)"></g><g clip-path="url(#79)"></g><g clip-path="url(#80)"></g><g clip-path="url(#81)"></g><g clip-path="url(#82)"></g><g clip-path="url(#83)"></g><g clip-path="url(#84)"></g><g clip-path="url(#85)"></g><g clip-path="url(#86)"></g><g clip-path="url(#87)"></g><g clip-path="url(#88)"></g><g clip-path="url(#89)"></g><g clip-path="url(#90)"></g><g clip-path="url(#91)"></g><g clip-path="url(#92)"></g><g clip-path="url(#93)"></g><g clip-path="url(#94)"></g><g clip-path="url(#95)"></g><g clip-path="url(#96)"></g><g clip-path="url(#97)"></g><g clip-path="url(#98)"></g><g clip-path="url(#99)"></g><g clip-path="url(#100)"></g><g clip-path="url(#101)"></g><g clip-path="url(#102)"></g><g clip-path="url(#103)"></g><g clip-path="url(#104)"></g><g clip-path="url(#105)"></g><g clip-path="url(#106)"></g><g clip-path="url(#107)"></g><g clip-path="url(#108)"></g><g clip-path="url(#109)"></g><g clip-path="url(#110)"></g><g clip-path="url(#111)"></g><g clip-path="url(#112)"></g><g clip-path="url(#113)"></g><g clip-path="url(#114)"></g><g clip-path="url(#115)"></g><g clip-path="url(#116)"></g><g clip-path="url(#117)"></g><g clip-path="url(#118)"></g><g clip-path="url(#119)"></g><g clip-path="url(#120)"></g><g clip-path="url(#121)"></g><g clip-path="url(#122)"></g><g clip-path="url(#123)"></g><g clip-path="url(#124)"></g><g clip-path="url(#125)"></g><g clip-path="url(#126)"></g><g clip-path="url(#127)"></g><g clip-path="url(#128)"></g><g clip-path="url(#129)"></g><g clip-path="url(#130)"></g><g clip-path="url(#131)"></g><g clip-path="url(#132)"></g><g clip-path="url(#133)"></g><g clip-path="url(#134)"></g><g clip-path="url(#135)"></g><g clip-path="url(#136)"></g><g clip-path="url(#137)"></g><g clip-path="url(#138)"></g><g clip-path="url(#139)"></g><g clip-path="url(#140)"></g><g clip-path="url(#141)"></g><g clip-path="url(#142)"></g><g clip-path="url(#143)"></g><g clip-path="url(#144)"></g><g clip-path="url(#145)"></g><g clip-path="url(#146)"></g><g clip-path="url(#147)"></g><g clip-path="url(#148)"></g><g clip-path="url(#149)"></g><g clip-path="url(#150)"></g><g clip-path="url(#151)"></g><g clip-path="url(#152)"></g><g clip-path="url(#153)"></g><g clip-path="url(#154)"></g><g clip-path="url(#155)"></g><g clip-path="url(#156)"></g><g clip-path="url(#157)"></g><g clip-path="url(#158)"></g><g clip-path="url(#159)"></g><g clip-path="url(#160)"></g><g clip-path="url(#161)"></g><g clip-path="url(#162)"></g><g clip-path="url(#163)"></g><g clip-path="url(#164)"></g><g clip-path="url(#165)"></g><g clip-path="url(#166)"></g><g clip-path="url(#167)"></g><g clip-path="url(#168)"></g><g clip-path="url(#169)"></g><g clip-path="url(#170)"></g><g clip-path="url(#171)"></g><g clip-path="url(#172)"></g><g clip-path="url(#173)"></g><g clip-path="url(#174)"></g><g clip-path="url(#175)"></g><g clip-path="url(#176)"></g><g clip-path="url(#177)"></g><g clip-path="url(#178)"></g><g clip-path="url(#179)"></g><g clip-path="url(#180)"></g><g clip-path="url(#181)"></g><g clip-path="url(#182)"></g><g clip-path="url(#183)"></g><g clip-path="url(#184)"></g><g clip-path="url(#185)"></g><g clip-path="url(#186)"></g><g clip-path="url(#187)"></g><g clip-path="url(#188)"></g><g clip-path="url(#189)"></g><g clip-path="url(#190)"></g><g clip-path="url(#191)"></g><g clip-path="url(#192)"></g><g clip-path="url(#193)"></g><g clip-path="url(#194)"></g><g clip-path="url(#195)"></g><g clip-path="url(#196)"></g><g clip-path="url(#197)"></g><g clip-path="url(#198)"></g><g clip-path="url(#199)"></g><g clip-path="url(#200)"></g><g clip-path="url(#201)"></g><g clip-path="url(#202)"></g><g clip-path="url(#203)"></g><g clip-path="url(#204)"></g><g clip-path="url(#205)"></g><g clip-path="url(#206)"></g><g clip-path="url(#207)"></g><g clip-path="url(#208)"></g><g clip-path="url(#209)"></g><g clip-path="url(#210)"></g><g clip-path="url(#211)"></g><g clip-path="url(#212)"></g><g clip-path="url(#213)"></g><g clip-path="url(#214)"></g><g clip-path="url(#215)"></g><g clip-path="url(#216)"></g><g clip-path="url(#217)"></g><g clip-path="url(#218)"></g><g clip-path="url(#219)"></g><g clip-path="url(#220)"></g><g clip-path="url(#221)"></g><g clip-path="url(#222)"></g><g clip-path="url(#223)"></g><g clip-path="url(#224)"></g><g clip-path="url(#225)"></g><g clip-path="url(#226)"></g><g clip-path="url(#227)"></g><g clip-path="url(#228)"></g><g clip-path="url(#229)"></g><path id="1245" transform="matrix(1 0 0 -1 0 792)" d="M-37.68 -20.64L671.4 -20.64L671.4 -20.64L671.4 32.04L671.4 32.04L-37.68 32.04z" stroke="none" fill="#0295A8" fill-rule="evenodd" /><path id="1246" transform="matrix(1 0 0 -1 0 792)" d="M246.6 632.37L567.8 633.72" stroke="#BFBFBF" stroke-width="0.48" fill="none" /><path id="1247" transform="matrix(1 0 0 -1 0 792)" d="M247.2 481.65L567.7 483" stroke="#BFBFBF" stroke-width="0.48" fill="none" /><path id="1248" transform="matrix(1 0 0 -1 0 792)" d="M245.16 353.88L567.01 353.88" stroke="#BFBFBF" stroke-width="0.48" fill="none" /><path id="1249" transform="matrix(1 0 0 -1 0 792)" d="M247.2 130.44L568.45 130.44" stroke="#BFBFBF" stroke-width="0.48" fill="none" /><path id="1250" transform="matrix(1 0 0 -1 0 792)" d="M466.44 114.9C 466.44 117.25 468.35 119.16 470.7 119.16C 473.05 119.16 474.96 117.25 474.96 114.9C 474.96 112.55 473.05 110.64 470.7 110.64C 468.35 110.64 466.44 112.55 466.44 114.9z" stroke="none" fill="#0295A8" fill-rule="evenodd" /><path id="1251" transform="matrix(1 0 0 -1 0 792)" d="M477.12 114.9C 477.12 117.25 479.03 119.16 481.38 119.16C 483.73 119.16 485.64 117.25 485.64 114.9C 485.64 112.55 483.73 110.64 481.38 110.64C 479.03 110.64 477.12 112.55 477.12 114.9z" stroke="none" fill="#0295A8" fill-rule="evenodd" /><path id="1252" transform="matrix(1 0 0 -1 0 792)" d="M498 114.9C 498 117.25 499.91 119.16 502.26 119.16C 504.61 119.16 506.52 117.25 506.52 114.9C 506.52 112.55 504.61 110.64 502.26 110.64C 499.91 110.64 498 112.55 498 114.9z" stroke="none" fill="#0295A8" fill-rule="evenodd" /><path id="1253" transform="matrix(1 0 0 -1 0 792)" d="M487.32 114.9C 487.32 117.25 489.23 119.16 491.58 119.16C 493.93 119.16 495.84 117.25 495.84 114.9C 495.84 112.55 493.93 110.64 491.58 110.64C 489.23 110.64 487.32 112.55 487.32 114.9z" stroke="none" fill="#0295A8" fill-rule="evenodd" /><path id="1254" transform="matrix(1 0 0 -1 0 792)" d="M508.68 114.9C 508.68 117.25 510.59 119.16 512.94 119.16C 515.29 119.16 517.2 117.25 517.2 114.9C 517.2 112.55 515.29 110.64 512.94 110.64C 510.59 110.64 508.68 112.55 508.68 114.9z" stroke="none" fill="#0295A8" fill-rule="evenodd" /><path id="1255" transform="matrix(1 0 0 -1 0 792)" d="M518.64 114.9C 518.64 117.25 520.55 119.16 522.9 119.16C 525.25 119.16 527.16 117.25 527.16 114.9C 527.16 112.55 525.25 110.64 522.9 110.64C 520.55 110.64 518.64 112.55 518.64 114.9z" stroke="none" fill="#0295A8" fill-rule="evenodd" /><path id="1256" transform="matrix(1 0 0 -1 0 792)" d="M529.32 114.9C 529.32 117.25 531.23 119.16 533.58 119.16C 535.93 119.16 537.84 117.25 537.84 114.9C 537.84 112.55 535.93 110.64 533.58 110.64C 531.23 110.64 529.32 112.55 529.32 114.9z" stroke="none" fill="#0295A8" fill-rule="evenodd" /><path id="1257" transform="matrix(1 0 0 -1 0 792)" d="M540 114.9C 540 117.25 541.91 119.16 544.26 119.16C 546.61 119.16 548.52 117.25 548.52 114.9C 548.52 112.55 546.61 110.64 544.26 110.64C 541.91 110.64 540 112.55 540 114.9z" stroke="none" fill="#0295A8" fill-rule="evenodd" /><path id="1258" transform="matrix(1 0 0 -1 0 792)" d="M550.32 114.9C 550.32 117.25 552.2 119.16 554.52 119.16C 556.84 119.16 558.72 117.25 558.72 114.9C 558.72 112.55 556.84 110.64 554.52 110.64C 552.2 110.64 550.32 112.55 550.32 114.9z" stroke="none" fill="#BFBFBF" fill-rule="evenodd" /><path id="1259" transform="matrix(1 0 0 -1 0 792)" d="M560.52 114.9C 560.52 117.25 562.43 119.16 564.78 119.16C 567.13 119.16 569.04 117.25 569.04 114.9C 569.04 112.55 567.13 110.64 564.78 110.64C 562.43 110.64 560.52 112.55 560.52 114.9z" stroke="none" fill="#BFBFBF" fill-rule="evenodd" /><path id="1260" transform="matrix(1 0 0 -1 0 792)" d="M466.8 94.74C 466.8 97.093 468.71 99 471.06 99C 473.41 99 475.32 97.093 475.32 94.74C 475.32 92.387 473.41 90.48 471.06 90.48C 468.71 90.48 466.8 92.387 466.8 94.74z" stroke="none" fill="#0295A8" fill-rule="evenodd" /><path id="1261" transform="matrix(1 0 0 -1 0 792)" d="M477.36 94.74C 477.36 97.093 479.24 99 481.56 99C 483.88 99 485.76 97.093 485.76 94.74C 485.76 92.387 483.88 90.48 481.56 90.48C 479.24 90.48 477.36 92.387 477.36 94.74z" stroke="none" fill="#0295A8" fill-rule="evenodd" /><path id="1262" transform="matrix(1 0 0 -1 0 792)" d="M498.36 94.74C 498.36 97.093 500.24 99 502.56 99C 504.88 99 506.76 97.093 506.76 94.74C 506.76 92.387 504.88 90.48 502.56 90.48C 500.24 90.48 498.36 92.387 498.36 94.74z" stroke="none" fill="#0295A8" fill-rule="evenodd" /><path id="1263" transform="matrix(1 0 0 -1 0 792)" d="M487.56 94.74C 487.56 97.093 489.44 99 491.76 99C 494.08 99 495.96 97.093 495.96 94.74C 495.96 92.387 494.08 90.48 491.76 90.48C 489.44 90.48 487.56 92.387 487.56 94.74z" stroke="none" fill="#0295A8" fill-rule="evenodd" /><path id="1264" transform="matrix(1 0 0 -1 0 792)" d="M508.8 94.74C 508.8 97.093 510.71 99 513.06 99C 515.41 99 517.32 97.093 517.32 94.74C 517.32 92.387 515.41 90.48 513.06 90.48C 510.71 90.48 508.8 92.387 508.8 94.74z" stroke="none" fill="#0295A8" fill-rule="evenodd" /><path id="1265" transform="matrix(1 0 0 -1 0 792)" d="M519 94.74C 519 97.093 520.91 99 523.26 99C 525.61 99 527.52 97.093 527.52 94.74C 527.52 92.387 525.61 90.48 523.26 90.48C 520.91 90.48 519 92.387 519 94.74z" stroke="none" fill="#0295A8" fill-rule="evenodd" /><path id="1266" transform="matrix(1 0 0 -1 0 792)" d="M529.56 94.74C 529.56 97.093 531.44 99 533.76 99C 536.08 99 537.96 97.093 537.96 94.74C 537.96 92.387 536.08 90.48 533.76 90.48C 531.44 90.48 529.56 92.387 529.56 94.74z" stroke="none" fill="#0295A8" fill-rule="evenodd" /><path id="1267" transform="matrix(1 0 0 -1 0 792)" d="M540 94.74C 540 97.093 541.91 99 544.26 99C 546.61 99 548.52 97.093 548.52 94.74C 548.52 92.387 546.61 90.48 544.26 90.48C 541.91 90.48 540 92.387 540 94.74z" stroke="none" fill="#0295A8" fill-rule="evenodd" /><path id="1268" transform="matrix(1 0 0 -1 0 792)" d="M550.2 94.74C 550.2 97.093 552.11 99 554.46 99C 556.81 99 558.72 97.093 558.72 94.74C 558.72 92.387 556.81 90.48 554.46 90.48C 552.11 90.48 550.2 92.387 550.2 94.74z" stroke="none" fill="#BFBFBF" fill-rule="evenodd" /><path id="1269" transform="matrix(1 0 0 -1 0 792)" d="M561 94.74C 561 97.093 562.91 99 565.26 99C 567.61 99 569.52 97.093 569.52 94.74C 569.52 92.387 567.61 90.48 565.26 90.48C 562.91 90.48 561 92.387 561 94.74z" stroke="none" fill="#BFBFBF" fill-rule="evenodd" /><path id="1270" transform="matrix(1 0 0 -1 0 792)" d="M466.8 76.14C 466.8 78.493 468.71 80.4 471.06 80.4C 473.41 80.4 475.32 78.493 475.32 76.14C 475.32 73.787 473.41 71.88 471.06 71.88C 468.71 71.88 466.8 73.787 466.8 76.14z" stroke="none" fill="#0295A8" fill-rule="evenodd" /><path id="1271" transform="matrix(1 0 0 -1 0 792)" d="M477.36 76.14C 477.36 78.493 479.27 80.4 481.62 80.4C 483.97 80.4 485.88 78.493 485.88 76.14C 485.88 73.787 483.97 71.88 481.62 71.88C 479.27 71.88 477.36 73.787 477.36 76.14z" stroke="none" fill="#0295A8" fill-rule="evenodd" /><path id="1272" transform="matrix(1 0 0 -1 0 792)" d="M498.12 76.14C 498.12 78.493 500.03 80.4 502.38 80.4C 504.73 80.4 506.64 78.493 506.64 76.14C 506.64 73.787 504.73 71.88 502.38 71.88C 500.03 71.88 498.12 73.787 498.12 76.14z" stroke="none" fill="#0295A8" fill-rule="evenodd" /><path id="1273" transform="matrix(1 0 0 -1 0 792)" d="M487.56 76.14C 487.56 78.493 489.47 80.4 491.82 80.4C 494.17 80.4 496.08 78.493 496.08 76.14C 496.08 73.787 494.17 71.88 491.82 71.88C 489.47 71.88 487.56 73.787 487.56 76.14z" stroke="none" fill="#0295A8" fill-rule="evenodd" /><path id="1274" transform="matrix(1 0 0 -1 0 792)" d="M508.8 76.14C 508.8 78.493 510.68 80.4 513 80.4C 515.32 80.4 517.2 78.493 517.2 76.14C 517.2 73.787 515.32 71.88 513 71.88C 510.68 71.88 508.8 73.787 508.8 76.14z" stroke="none" fill="#BFBFBF" fill-rule="evenodd" /><path id="1275" transform="matrix(1 0 0 -1 0 792)" d="M518.88 76.14C 518.88 78.493 520.79 80.4 523.14 80.4C 525.49 80.4 527.4 78.493 527.4 76.14C 527.4 73.787 525.49 71.88 523.14 71.88C 520.79 71.88 518.88 73.787 518.88 76.14z" stroke="none" fill="#BFBFBF" fill-rule="evenodd" /><path id="1276" transform="matrix(1 0 0 -1 0 792)" d="M529.56 76.14C 529.56 78.493 531.44 80.4 533.76 80.4C 536.08 80.4 537.96 78.493 537.96 76.14C 537.96 73.787 536.08 71.88 533.76 71.88C 531.44 71.88 529.56 73.787 529.56 76.14z" stroke="none" fill="#BFBFBF" fill-rule="evenodd" /><path id="1277" transform="matrix(1 0 0 -1 0 792)" d="M540.12 76.14C 540.12 78.493 542.03 80.4 544.38 80.4C 546.73 80.4 548.64 78.493 548.64 76.14C 548.64 73.787 546.73 71.88 544.38 71.88C 542.03 71.88 540.12 73.787 540.12 76.14z" stroke="none" fill="#BFBFBF" fill-rule="evenodd" /><path id="1278" transform="matrix(1 0 0 -1 0 792)" d="M550.2 76.14C 550.2 78.493 552.11 80.4 554.46 80.4C 556.81 80.4 558.72 78.493 558.72 76.14C 558.72 73.787 556.81 71.88 554.46 71.88C 552.11 71.88 550.2 73.787 550.2 76.14z" stroke="none" fill="#BFBFBF" fill-rule="evenodd" /><path id="1279" transform="matrix(1 0 0 -1 0 792)" d="M560.88 76.14C 560.88 78.493 562.79 80.4 565.14 80.4C 567.49 80.4 569.4 78.493 569.4 76.14C 569.4 73.787 567.49 71.88 565.14 71.88C 562.79 71.88 560.88 73.787 560.88 76.14z" stroke="none" fill="#BFBFBF" fill-rule="evenodd" /></g></g></svg>