<svg xmlns="http://www.w3.org/2000/svg" xmlns:xlink="http://www.w3.org/1999/xlink" id="body_1" preserveAspectRatio="xMinYMin meet" viewBox="0 0 816 1056"><defs><clipPath id="1"><path id="" clip-rule="evenodd" transform="matrix(1 0 0 1 0 0)" d="M0 792L0 0L0 0L612 0L612 0L612 792L612 792L0 792z" /></clipPath><clipPath id="2"><path id="" clip-rule="evenodd" transform="matrix(1 0 0 1 0 0)" d="M9.12E-06 792L612 792L612 792L612 0L612 0L9.12E-06 0z" /></clipPath><clipPath id="3"><path id="" clip-rule="evenodd" transform="matrix(1 0 0 1 0 0)" d="M9.12E-06 792L612 792L612 792L612 0L612 0L9.12E-06 0z" /></clipPath><clipPath id="4"><path id="" clip-rule="evenodd" transform="matrix(1 0 0 1 0 0)" d="M9.12E-06 792L612 792L612 792L612 0L612 0L9.12E-06 0z" /></clipPath><clipPath id="5"><path id="" clip-rule="evenodd" transform="matrix(1 0 0 1 0 0)" d="M-2.887E-06 791.9998L612 791.9998L612 791.9998L612 -0.0002441406L612 -0.0002441406L-2.887E-06 -0.0002441406z" /></clipPath><clipPath id="6"><path id="" clip-rule="evenodd" transform="matrix(1 0 0 1 0 0)" d="M42.6 702.336L224.21 702.336L224.21 702.336L224.21 135.746L224.21 135.746L42.6 135.746z" /></clipPath><clipPath id="7"><path id="" clip-rule="evenodd" transform="matrix(1 0 0 1 0 0)" d="M42.6 702.336L224.21 702.336L224.21 702.336L224.21 135.746L224.21 135.746L42.6 135.746z" /></clipPath><clipPath id="8"><path id="" clip-rule="evenodd" transform="matrix(1 0 0 1 0 0)" d="M42.6 702.336L224.21 702.336L224.21 702.336L224.21 135.746L224.21 135.746L42.6 135.746z" /></clipPath><clipPath id="9"><path id="" clip-rule="evenodd" transform="matrix(1 0 0 1 0 0)" d="M42.6 702.336L224.21 702.336L224.21 702.336L224.21 135.746L224.21 135.746L42.6 135.746z" /></clipPath><clipPath id="10"><path id="" clip-rule="evenodd" transform="matrix(1 0 0 1 0 0)" d="M42.6 702.336L224.21 702.336L224.21 702.336L224.21 135.746L224.21 135.746L42.6 135.746z" /></clipPath><clipPath id="11"><path id="" clip-rule="evenodd" transform="matrix(1 0 0 1 0 0)" d="M42.6 702.336L224.21 702.336L224.21 702.336L224.21 135.746L224.21 135.746L42.6 135.746z" /></clipPath><clipPath id="12"><path id="" clip-rule="evenodd" transform="matrix(1 0 0 1 0 0)" d="M42.6 702.336L224.21 702.336L224.21 702.336L224.21 135.746L224.21 135.746L42.6 135.746z" /></clipPath><clipPath id="13"><path id="" clip-rule="evenodd" transform="matrix(1 0 0 1 0 0)" d="M42.6 702.336L224.21 702.336L224.21 702.336L224.21 135.746L224.21 135.746L42.6 135.746z" /></clipPath><clipPath id="14"><path id="" clip-rule="evenodd" transform="matrix(1 0 0 1 0 0)" d="M42.6 702.336L224.21 702.336L224.21 702.336L224.21 135.746L224.21 135.746L42.6 135.746z" /></clipPath><clipPath id="15"><path id="" clip-rule="evenodd" transform="matrix(1 0 0 1 0 0)" d="M42.6 702.336L224.21 702.336L224.21 702.336L224.21 135.746L224.21 135.746L42.6 135.746z" /></clipPath><clipPath id="16"><path id="" clip-rule="evenodd" transform="matrix(1 0 0 1 0 0)" d="M42.6 702.336L224.21 702.336L224.21 702.336L224.21 135.746L224.21 135.746L42.6 135.746z" /></clipPath><clipPath id="17"><path id="" clip-rule="evenodd" transform="matrix(1 0 0 1 0 0)" d="M42.6 702.336L224.21 702.336L224.21 702.336L224.21 135.746L224.21 135.746L42.6 135.746z" /></clipPath><clipPath id="18"><path id="" clip-rule="evenodd" transform="matrix(1 0 0 1 0 0)" d="M42.6 702.336L224.21 702.336L224.21 702.336L224.21 135.746L224.21 135.746L42.6 135.746z" /></clipPath><clipPath id="19"><path id="" clip-rule="evenodd" transform="matrix(1 0 0 1 0 0)" d="M42.6 702.336L224.21 702.336L224.21 702.336L224.21 135.746L224.21 135.746L42.6 135.746z" /></clipPath><clipPath id="20"><path id="" clip-rule="evenodd" transform="matrix(1 0 0 1 0 0)" d="M42.6 702.336L224.21 702.336L224.21 702.336L224.21 135.746L224.21 135.746L42.6 135.746z" /></clipPath><clipPath id="21"><path id="" clip-rule="evenodd" transform="matrix(1 0 0 1 0 0)" d="M42.6 702.336L224.21 702.336L224.21 702.336L224.21 135.746L224.21 135.746L42.6 135.746z" /></clipPath><clipPath id="22"><path id="" clip-rule="evenodd" transform="matrix(1 0 0 1 0 0)" d="M42.6 702.336L224.21 702.336L224.21 702.336L224.21 135.746L224.21 135.746L42.6 135.746z" /></clipPath><clipPath id="23"><path id="" clip-rule="evenodd" transform="matrix(1 0 0 1 0 0)" d="M42.6 702.336L224.21 702.336L224.21 702.336L224.21 135.746L224.21 135.746L42.6 135.746z" /></clipPath><clipPath id="24"><path id="" clip-rule="evenodd" transform="matrix(1 0 0 1 0 0)" d="M42.6 702.336L224.21 702.336L224.21 702.336L224.21 135.746L224.21 135.746L42.6 135.746z" /></clipPath><clipPath id="25"><path id="" clip-rule="evenodd" transform="matrix(1 0 0 1 0 0)" d="M42.6 702.336L224.21 702.336L224.21 702.336L224.21 135.746L224.21 135.746L42.6 135.746z" /></clipPath><clipPath id="26"><path id="" clip-rule="evenodd" transform="matrix(1 0 0 1 0 0)" d="M42.6 702.336L224.21 702.336L224.21 702.336L224.21 135.746L224.21 135.746L42.6 135.746z" /></clipPath><clipPath id="27"><path id="" clip-rule="evenodd" transform="matrix(1 0 0 1 0 0)" d="M42.6 702.336L224.21 702.336L224.21 702.336L224.21 135.746L224.21 135.746L42.6 135.746z" /></clipPath><clipPath id="28"><path id="" clip-rule="evenodd" transform="matrix(1 0 0 1 0 0)" d="M42.6 702.336L224.21 702.336L224.21 702.336L224.21 135.746L224.21 135.746L42.6 135.746z" /></clipPath><clipPath id="29"><path id="" clip-rule="evenodd" transform="matrix(1 0 0 1 0 0)" d="M42.6 702.336L224.21 702.336L224.21 702.336L224.21 135.746L224.21 135.746L42.6 135.746z" /></clipPath><clipPath id="30"><path id="" clip-rule="evenodd" transform="matrix(1 0 0 1 0 0)" d="M42.6 702.336L224.21 702.336L224.21 702.336L224.21 135.746L224.21 135.746L42.6 135.746z" /></clipPath><clipPath id="31"><path id="" clip-rule="evenodd" transform="matrix(1 0 0 1 0 0)" d="M42.6 702.336L224.21 702.336L224.21 702.336L224.21 135.746L224.21 135.746L42.6 135.746z" /></clipPath><clipPath id="32"><path id="" clip-rule="evenodd" transform="matrix(1 0 0 1 0 0)" d="M42.6 702.336L224.21 702.336L224.21 702.336L224.21 135.746L224.21 135.746L42.6 135.746z" /></clipPath><clipPath id="33"><path id="" clip-rule="evenodd" transform="matrix(1 0 0 1 0 0)" d="M42.6 702.336L224.21 702.336L224.21 702.336L224.21 135.746L224.21 135.746L42.6 135.746z" /></clipPath><clipPath id="34"><path id="" clip-rule="evenodd" transform="matrix(1 0 0 1 0 0)" d="M42.6 702.336L224.21 702.336L224.21 702.336L224.21 135.746L224.21 135.746L42.6 135.746z" /></clipPath><clipPath id="35"><path id="" clip-rule="evenodd" transform="matrix(1 0 0 1 0 0)" d="M42.6 702.336L224.21 702.336L224.21 702.336L224.21 135.746L224.21 135.746L42.6 135.746z" /></clipPath><clipPath id="36"><path id="" clip-rule="evenodd" transform="matrix(1 0 0 1 0 0)" d="M42.6 702.336L224.21 702.336L224.21 702.336L224.21 135.746L224.21 135.746L42.6 135.746z" /></clipPath><clipPath id="37"><path id="" clip-rule="evenodd" transform="matrix(1 0 0 1 0 0)" d="M42.6 702.336L224.21 702.336L224.21 702.336L224.21 135.746L224.21 135.746L42.6 135.746z" /></clipPath><clipPath id="38"><path id="" clip-rule="evenodd" transform="matrix(1 0 0 1 0 0)" d="M42.6 702.336L224.21 702.336L224.21 702.336L224.21 135.746L224.21 135.746L42.6 135.746z" /></clipPath><clipPath id="39"><path id="" clip-rule="evenodd" transform="matrix(1 0 0 1 0 0)" d="M42.6 702.336L224.21 702.336L224.21 702.336L224.21 135.746L224.21 135.746L42.6 135.746z" /></clipPath><clipPath id="40"><path id="" clip-rule="evenodd" transform="matrix(1 0 0 1 0 0)" d="M42.6 702.336L224.21 702.336L224.21 702.336L224.21 135.746L224.21 135.746L42.6 135.746z" /></clipPath><clipPath id="41"><path id="" clip-rule="evenodd" transform="matrix(1 0 0 1 0 0)" d="M42.6 702.336L224.21 702.336L224.21 702.336L224.21 135.746L224.21 135.746L42.6 135.746z" /></clipPath><clipPath id="42"><path id="" clip-rule="evenodd" transform="matrix(1 0 0 1 0 0)" d="M42.6 702.336L224.21 702.336L224.21 702.336L224.21 135.746L224.21 135.746L42.6 135.746z" /></clipPath><clipPath id="43"><path id="" clip-rule="evenodd" transform="matrix(1 0 0 1 0 0)" d="M42.6 702.336L224.21 702.336L224.21 702.336L224.21 135.746L224.21 135.746L42.6 135.746z" /></clipPath><clipPath id="44"><path id="" clip-rule="evenodd" transform="matrix(1 0 0 1 0 0)" d="M42.6 702.336L224.21 702.336L224.21 702.336L224.21 135.746L224.21 135.746L42.6 135.746z" /></clipPath><clipPath id="45"><path id="" clip-rule="evenodd" transform="matrix(1 0 0 1 0 0)" d="M42.6 702.336L224.21 702.336L224.21 702.336L224.21 135.746L224.21 135.746L42.6 135.746z" /></clipPath><clipPath id="46"><path id="" clip-rule="evenodd" transform="matrix(1 0 0 1 0 0)" d="M42.6 702.336L224.21 702.336L224.21 702.336L224.21 135.746L224.21 135.746L42.6 135.746z" /></clipPath><clipPath id="47"><path id="" clip-rule="evenodd" transform="matrix(1 0 0 1 0 0)" d="M42.6 702.336L224.21 702.336L224.21 702.336L224.21 135.746L224.21 135.746L42.6 135.746z" /></clipPath><clipPath id="48"><path id="" clip-rule="evenodd" transform="matrix(1 0 0 1 0 0)" d="M42.6 702.336L224.21 702.336L224.21 702.336L224.21 135.746L224.21 135.746L42.6 135.746z" /></clipPath><clipPath id="49"><path id="" clip-rule="evenodd" transform="matrix(1 0 0 1 0 0)" d="M42.6 702.336L224.21 702.336L224.21 702.336L224.21 135.746L224.21 135.746L42.6 135.746z" /></clipPath><clipPath id="50"><path id="" clip-rule="evenodd" transform="matrix(1 0 0 1 0 0)" d="M42.6 702.336L224.21 702.336L224.21 702.336L224.21 135.746L224.21 135.746L42.6 135.746z" /></clipPath><clipPath id="51"><path id="" clip-rule="evenodd" transform="matrix(1 0 0 1 0 0)" d="M42.6 702.336L224.21 702.336L224.21 702.336L224.21 135.746L224.21 135.746L42.6 135.746z" /></clipPath><clipPath id="52"><path id="" clip-rule="evenodd" transform="matrix(1 0 0 1 0 0)" d="M42.6 702.336L224.21 702.336L224.21 702.336L224.21 135.746L224.21 135.746L42.6 135.746z" /></clipPath><clipPath id="53"><path id="" clip-rule="evenodd" transform="matrix(1 0 0 1 0 0)" d="M42.6 702.336L224.21 702.336L224.21 702.336L224.21 135.746L224.21 135.746L42.6 135.746z" /></clipPath><clipPath id="54"><path id="" clip-rule="evenodd" transform="matrix(1 0 0 1 0 0)" d="M42.6 702.336L224.21 702.336L224.21 702.336L224.21 135.746L224.21 135.746L42.6 135.746z" /></clipPath><clipPath id="55"><path id="" clip-rule="evenodd" transform="matrix(1 0 0 1 0 0)" d="M42.6 702.336L224.21 702.336L224.21 702.336L224.21 135.746L224.21 135.746L42.6 135.746z" /></clipPath><clipPath id="56"><path id="" clip-rule="evenodd" transform="matrix(1 0 0 1 0 0)" d="M42.6 702.336L224.21 702.336L224.21 702.336L224.21 135.746L224.21 135.746L42.6 135.746z" /></clipPath><clipPath id="57"><path id="" clip-rule="evenodd" transform="matrix(1 0 0 1 0 0)" d="M42.6 702.336L224.21 702.336L224.21 702.336L224.21 135.746L224.21 135.746L42.6 135.746z" /></clipPath><clipPath id="58"><path id="" clip-rule="evenodd" transform="matrix(1 0 0 1 0 0)" d="M42.6 702.336L224.21 702.336L224.21 702.336L224.21 135.746L224.21 135.746L42.6 135.746z" /></clipPath><clipPath id="59"><path id="" clip-rule="evenodd" transform="matrix(1 0 0 1 0 0)" d="M42.6 702.336L224.21 702.336L224.21 702.336L224.21 135.746L224.21 135.746L42.6 135.746z" /></clipPath><clipPath id="60"><path id="" clip-rule="evenodd" transform="matrix(1 0 0 1 0 0)" d="M42.6 702.336L224.21 702.336L224.21 702.336L224.21 135.746L224.21 135.746L42.6 135.746z" /></clipPath><clipPath id="61"><path id="" clip-rule="evenodd" transform="matrix(1 0 0 1 0 0)" d="M42.6 702.336L224.21 702.336L224.21 702.336L224.21 135.746L224.21 135.746L42.6 135.746z" /></clipPath><clipPath id="62"><path id="" clip-rule="evenodd" transform="matrix(1 0 0 1 0 0)" d="M42.6 702.336L224.21 702.336L224.21 702.336L224.21 135.746L224.21 135.746L42.6 135.746z" /></clipPath><clipPath id="63"><path id="" clip-rule="evenodd" transform="matrix(1 0 0 1 0 0)" d="M42.6 702.336L224.21 702.336L224.21 702.336L224.21 135.746L224.21 135.746L42.6 135.746z" /></clipPath><clipPath id="64"><path id="" clip-rule="evenodd" transform="matrix(1 0 0 1 0 0)" d="M42.6 702.336L224.21 702.336L224.21 702.336L224.21 135.746L224.21 135.746L42.6 135.746z" /></clipPath><clipPath id="65"><path id="" clip-rule="evenodd" transform="matrix(1 0 0 1 0 0)" d="M42.6 702.336L224.21 702.336L224.21 702.336L224.21 135.746L224.21 135.746L42.6 135.746z" /></clipPath><clipPath id="66"><path id="" clip-rule="evenodd" transform="matrix(1 0 0 1 0 0)" d="M42.6 702.336L224.21 702.336L224.21 702.336L224.21 135.746L224.21 135.746L42.6 135.746z" /></clipPath><clipPath id="67"><path id="" clip-rule="evenodd" transform="matrix(1 0 0 1 0 0)" d="M42.6 702.336L224.21 702.336L224.21 702.336L224.21 135.746L224.21 135.746L42.6 135.746z" /></clipPath><clipPath id="68"><path id="" clip-rule="evenodd" transform="matrix(1 0 0 1 0 0)" d="M42.6 702.336L224.21 702.336L224.21 702.336L224.21 135.746L224.21 135.746L42.6 135.746z" /></clipPath><clipPath id="69"><path id="" clip-rule="evenodd" transform="matrix(1 0 0 1 0 0)" d="M42.6 702.336L224.21 702.336L224.21 702.336L224.21 135.746L224.21 135.746L42.6 135.746z" /></clipPath><clipPath id="70"><path id="" clip-rule="evenodd" transform="matrix(1 0 0 1 0 0)" d="M42.6 702.336L224.21 702.336L224.21 702.336L224.21 135.746L224.21 135.746L42.6 135.746z" /></clipPath><clipPath id="71"><path id="" clip-rule="evenodd" transform="matrix(1 0 0 1 0 0)" d="M42.6 702.336L224.21 702.336L224.21 702.336L224.21 135.746L224.21 135.746L42.6 135.746z" /></clipPath><clipPath id="72"><path id="" clip-rule="evenodd" transform="matrix(1 0 0 1 0 0)" d="M42.6 702.336L224.21 702.336L224.21 702.336L224.21 135.746L224.21 135.746L42.6 135.746z" /></clipPath><clipPath id="73"><path id="" clip-rule="evenodd" transform="matrix(1 0 0 1 0 0)" d="M42.6 702.336L224.21 702.336L224.21 702.336L224.21 135.746L224.21 135.746L42.6 135.746z" /></clipPath><clipPath id="74"><path id="" clip-rule="evenodd" transform="matrix(1 0 0 1 0 0)" d="M42.6 702.336L224.21 702.336L224.21 702.336L224.21 135.746L224.21 135.746L42.6 135.746z" /></clipPath><clipPath id="75"><path id="" clip-rule="evenodd" transform="matrix(1 0 0 1 0 0)" d="M42.6 702.336L224.21 702.336L224.21 702.336L224.21 135.746L224.21 135.746L42.6 135.746z" /></clipPath><clipPath id="76"><path id="" clip-rule="evenodd" transform="matrix(1 0 0 1 0 0)" d="M42.6 702.336L224.21 702.336L224.21 702.336L224.21 135.746L224.21 135.746L42.6 135.746z" /></clipPath><clipPath id="77"><path id="" clip-rule="evenodd" transform="matrix(1 0 0 1 0 0)" d="M42.6 702.336L224.21 702.336L224.21 702.336L224.21 135.746L224.21 135.746L42.6 135.746z" /></clipPath><clipPath id="78"><path id="" clip-rule="evenodd" transform="matrix(1 0 0 1 0 0)" d="M42.6 702.336L224.21 702.336L224.21 702.336L224.21 135.746L224.21 135.746L42.6 135.746z" /></clipPath><clipPath id="79"><path id="" clip-rule="evenodd" transform="matrix(1 0 0 1 0 0)" d="M231.65 731.496L572.62 731.496L572.62 731.496L572.62 136.706L572.62 136.706L231.65 136.706z" /></clipPath><clipPath id="80"><path id="" clip-rule="evenodd" transform="matrix(1 0 0 1 0 0)" d="M231.65 731.496L572.62 731.496L572.62 731.496L572.62 136.706L572.62 136.706L231.65 136.706z" /></clipPath><clipPath id="81"><path id="" clip-rule="evenodd" transform="matrix(1 0 0 1 0 0)" d="M231.65 731.496L572.62 731.496L572.62 731.496L572.62 136.706L572.62 136.706L231.65 136.706z" /></clipPath><clipPath id="82"><path id="" clip-rule="evenodd" transform="matrix(1 0 0 1 0 0)" d="M231.65 731.496L572.62 731.496L572.62 731.496L572.62 136.706L572.62 136.706L231.65 136.706z" /></clipPath><clipPath id="83"><path id="" clip-rule="evenodd" transform="matrix(1 0 0 1 0 0)" d="M231.65 731.496L572.62 731.496L572.62 731.496L572.62 136.706L572.62 136.706L231.65 136.706z" /></clipPath><clipPath id="84"><path id="" clip-rule="evenodd" transform="matrix(1 0 0 1 0 0)" d="M231.65 731.496L572.62 731.496L572.62 731.496L572.62 136.706L572.62 136.706L231.65 136.706z" /></clipPath><clipPath id="85"><path id="" clip-rule="evenodd" transform="matrix(1 0 0 1 0 0)" d="M231.65 731.496L572.62 731.496L572.62 731.496L572.62 136.706L572.62 136.706L231.65 136.706z" /></clipPath><clipPath id="86"><path id="" clip-rule="evenodd" transform="matrix(1 0 0 1 0 0)" d="M231.65 731.496L572.62 731.496L572.62 731.496L572.62 136.706L572.62 136.706L231.65 136.706z" /></clipPath><clipPath id="87"><path id="" clip-rule="evenodd" transform="matrix(1 0 0 1 0 0)" d="M231.65 731.496L572.62 731.496L572.62 731.496L572.62 136.706L572.62 136.706L231.65 136.706z" /></clipPath><clipPath id="88"><path id="" clip-rule="evenodd" transform="matrix(1 0 0 1 0 0)" d="M231.65 731.496L572.62 731.496L572.62 731.496L572.62 136.706L572.62 136.706L231.65 136.706z" /></clipPath><clipPath id="89"><path id="" clip-rule="evenodd" transform="matrix(1 0 0 1 0 0)" d="M231.65 731.496L572.62 731.496L572.62 731.496L572.62 136.706L572.62 136.706L231.65 136.706z" /></clipPath><clipPath id="90"><path id="" clip-rule="evenodd" transform="matrix(1 0 0 1 0 0)" d="M231.65 731.496L572.62 731.496L572.62 731.496L572.62 136.706L572.62 136.706L231.65 136.706z" /></clipPath><clipPath id="91"><path id="" clip-rule="evenodd" transform="matrix(1 0 0 1 0 0)" d="M231.65 731.496L572.62 731.496L572.62 731.496L572.62 136.706L572.62 136.706L231.65 136.706z" /></clipPath><clipPath id="92"><path id="" clip-rule="evenodd" transform="matrix(1 0 0 1 0 0)" d="M231.65 731.496L572.62 731.496L572.62 731.496L572.62 136.706L572.62 136.706L231.65 136.706z" /></clipPath><clipPath id="93"><path id="" clip-rule="evenodd" transform="matrix(1 0 0 1 0 0)" d="M231.65 731.496L572.62 731.496L572.62 731.496L572.62 136.706L572.62 136.706L231.65 136.706z" /></clipPath><clipPath id="94"><path id="" clip-rule="evenodd" transform="matrix(1 0 0 1 0 0)" d="M231.65 731.496L572.62 731.496L572.62 731.496L572.62 136.706L572.62 136.706L231.65 136.706z" /></clipPath><clipPath id="95"><path id="" clip-rule="evenodd" transform="matrix(1 0 0 1 0 0)" d="M231.65 731.496L572.62 731.496L572.62 731.496L572.62 136.706L572.62 136.706L231.65 136.706z" /></clipPath><clipPath id="96"><path id="" clip-rule="evenodd" transform="matrix(1 0 0 1 0 0)" d="M231.65 731.496L572.62 731.496L572.62 731.496L572.62 136.706L572.62 136.706L231.65 136.706z" /></clipPath><clipPath id="97"><path id="" clip-rule="evenodd" transform="matrix(1 0 0 1 0 0)" d="M231.65 731.496L572.62 731.496L572.62 731.496L572.62 136.706L572.62 136.706L231.65 136.706z" /></clipPath><clipPath id="98"><path id="" clip-rule="evenodd" transform="matrix(1 0 0 1 0 0)" d="M231.65 731.496L572.62 731.496L572.62 731.496L572.62 136.706L572.62 136.706L231.65 136.706z" /></clipPath><clipPath id="99"><path id="" clip-rule="evenodd" transform="matrix(1 0 0 1 0 0)" d="M231.65 731.496L572.62 731.496L572.62 731.496L572.62 136.706L572.62 136.706L231.65 136.706z" /></clipPath><clipPath id="100"><path id="" clip-rule="evenodd" transform="matrix(1 0 0 1 0 0)" d="M231.65 731.496L572.62 731.496L572.62 731.496L572.62 136.706L572.62 136.706L231.65 136.706z" /></clipPath><clipPath id="101"><path id="" clip-rule="evenodd" transform="matrix(1 0 0 1 0 0)" d="M231.65 731.496L572.62 731.496L572.62 731.496L572.62 136.706L572.62 136.706L231.65 136.706z" /></clipPath><clipPath id="102"><path id="" clip-rule="evenodd" transform="matrix(1 0 0 1 0 0)" d="M231.65 731.496L572.62 731.496L572.62 731.496L572.62 136.706L572.62 136.706L231.65 136.706z" /></clipPath><clipPath id="103"><path id="" clip-rule="evenodd" transform="matrix(1 0 0 1 0 0)" d="M231.65 731.496L572.62 731.496L572.62 731.496L572.62 136.706L572.62 136.706L231.65 136.706z" /></clipPath><clipPath id="104"><path id="" clip-rule="evenodd" transform="matrix(1 0 0 1 0 0)" d="M231.65 731.496L572.62 731.496L572.62 731.496L572.62 136.706L572.62 136.706L231.65 136.706z" /></clipPath><clipPath id="105"><path id="" clip-rule="evenodd" transform="matrix(1 0 0 1 0 0)" d="M231.65 731.496L572.62 731.496L572.62 731.496L572.62 136.706L572.62 136.706L231.65 136.706z" /></clipPath><clipPath id="106"><path id="" clip-rule="evenodd" transform="matrix(1 0 0 1 0 0)" d="M231.65 731.496L572.62 731.496L572.62 731.496L572.62 136.706L572.62 136.706L231.65 136.706z" /></clipPath><clipPath id="107"><path id="" clip-rule="evenodd" transform="matrix(1 0 0 1 0 0)" d="M231.65 731.496L572.62 731.496L572.62 731.496L572.62 136.706L572.62 136.706L231.65 136.706z" /></clipPath><clipPath id="108"><path id="" clip-rule="evenodd" transform="matrix(1 0 0 1 0 0)" d="M231.65 731.496L572.62 731.496L572.62 731.496L572.62 136.706L572.62 136.706L231.65 136.706z" /></clipPath><clipPath id="109"><path id="" clip-rule="evenodd" transform="matrix(1 0 0 1 0 0)" d="M231.65 731.496L572.62 731.496L572.62 731.496L572.62 136.706L572.62 136.706L231.65 136.706z" /></clipPath><clipPath id="110"><path id="" clip-rule="evenodd" transform="matrix(1 0 0 1 0 0)" d="M231.65 731.496L572.62 731.496L572.62 731.496L572.62 136.706L572.62 136.706L231.65 136.706z" /></clipPath><clipPath id="111"><path id="" clip-rule="evenodd" transform="matrix(1 0 0 1 0 0)" d="M231.65 731.496L572.62 731.496L572.62 731.496L572.62 136.706L572.62 136.706L231.65 136.706z" /></clipPath><clipPath id="112"><path id="" clip-rule="evenodd" transform="matrix(1 0 0 1 0 0)" d="M231.65 731.496L572.62 731.496L572.62 731.496L572.62 136.706L572.62 136.706L231.65 136.706z" /></clipPath><clipPath id="113"><path id="" clip-rule="evenodd" transform="matrix(1 0 0 1 0 0)" d="M231.65 731.496L572.62 731.496L572.62 731.496L572.62 136.706L572.62 136.706L231.65 136.706z" /></clipPath><clipPath id="114"><path id="" clip-rule="evenodd" transform="matrix(1 0 0 1 0 0)" d="M231.65 731.496L572.62 731.496L572.62 731.496L572.62 136.706L572.62 136.706L231.65 136.706z" /></clipPath><clipPath id="115"><path id="" clip-rule="evenodd" transform="matrix(1 0 0 1 0 0)" d="M231.65 731.496L572.62 731.496L572.62 731.496L572.62 136.706L572.62 136.706L231.65 136.706z" /></clipPath><clipPath id="116"><path id="" clip-rule="evenodd" transform="matrix(1 0 0 1 0 0)" d="M231.65 731.496L572.62 731.496L572.62 731.496L572.62 136.706L572.62 136.706L231.65 136.706z" /></clipPath><clipPath id="117"><path id="" clip-rule="evenodd" transform="matrix(1 0 0 1 0 0)" d="M231.65 731.496L572.62 731.496L572.62 731.496L572.62 136.706L572.62 136.706L231.65 136.706z" /></clipPath><clipPath id="118"><path id="" clip-rule="evenodd" transform="matrix(1 0 0 1 0 0)" d="M231.65 731.496L572.62 731.496L572.62 731.496L572.62 136.706L572.62 136.706L231.65 136.706z" /></clipPath><clipPath id="119"><path id="" clip-rule="evenodd" transform="matrix(1 0 0 1 0 0)" d="M231.65 731.496L572.62 731.496L572.62 731.496L572.62 136.706L572.62 136.706L231.65 136.706z" /></clipPath><clipPath id="120"><path id="" clip-rule="evenodd" transform="matrix(1 0 0 1 0 0)" d="M231.65 731.496L572.62 731.496L572.62 731.496L572.62 136.706L572.62 136.706L231.65 136.706z" /></clipPath><clipPath id="121"><path id="" clip-rule="evenodd" transform="matrix(1 0 0 1 0 0)" d="M231.65 731.496L572.62 731.496L572.62 731.496L572.62 136.706L572.62 136.706L231.65 136.706z" /></clipPath><clipPath id="122"><path id="" clip-rule="evenodd" transform="matrix(1 0 0 1 0 0)" d="M231.65 731.496L572.62 731.496L572.62 731.496L572.62 136.706L572.62 136.706L231.65 136.706z" /></clipPath><clipPath id="123"><path id="" clip-rule="evenodd" transform="matrix(1 0 0 1 0 0)" d="M231.65 731.496L572.62 731.496L572.62 731.496L572.62 136.706L572.62 136.706L231.65 136.706z" /></clipPath><clipPath id="124"><path id="" clip-rule="evenodd" transform="matrix(1 0 0 1 0 0)" d="M231.65 731.496L572.62 731.496L572.62 731.496L572.62 136.706L572.62 136.706L231.65 136.706z" /></clipPath><clipPath id="125"><path id="" clip-rule="evenodd" transform="matrix(1 0 0 1 0 0)" d="M231.65 731.496L572.62 731.496L572.62 731.496L572.62 136.706L572.62 136.706L231.65 136.706z" /></clipPath><clipPath id="126"><path id="" clip-rule="evenodd" transform="matrix(1 0 0 1 0 0)" d="M231.65 731.496L572.62 731.496L572.62 731.496L572.62 136.706L572.62 136.706L231.65 136.706z" /></clipPath><clipPath id="127"><path id="" clip-rule="evenodd" transform="matrix(1 0 0 1 0 0)" d="M231.65 731.496L572.62 731.496L572.62 731.496L572.62 136.706L572.62 136.706L231.65 136.706z" /></clipPath><clipPath id="128"><path id="" clip-rule="evenodd" transform="matrix(1 0 0 1 0 0)" d="M231.65 731.496L572.62 731.496L572.62 731.496L572.62 136.706L572.62 136.706L231.65 136.706z" /></clipPath><clipPath id="129"><path id="" clip-rule="evenodd" transform="matrix(1 0 0 1 0 0)" d="M231.65 731.496L572.62 731.496L572.62 731.496L572.62 136.706L572.62 136.706L231.65 136.706z" /></clipPath><clipPath id="130"><path id="" clip-rule="evenodd" transform="matrix(1 0 0 1 0 0)" d="M231.65 731.496L572.62 731.496L572.62 731.496L572.62 136.706L572.62 136.706L231.65 136.706z" /></clipPath><clipPath id="131"><path id="" clip-rule="evenodd" transform="matrix(1 0 0 1 0 0)" d="M231.65 731.496L572.62 731.496L572.62 731.496L572.62 136.706L572.62 136.706L231.65 136.706z" /></clipPath><clipPath id="132"><path id="" clip-rule="evenodd" transform="matrix(1 0 0 1 0 0)" d="M231.65 731.496L572.62 731.496L572.62 731.496L572.62 136.706L572.62 136.706L231.65 136.706z" /></clipPath><clipPath id="133"><path id="" clip-rule="evenodd" transform="matrix(1 0 0 1 0 0)" d="M231.65 731.496L572.62 731.496L572.62 731.496L572.62 136.706L572.62 136.706L231.65 136.706z" /></clipPath><clipPath id="134"><path id="" clip-rule="evenodd" transform="matrix(1 0 0 1 0 0)" d="M231.65 731.496L572.62 731.496L572.62 731.496L572.62 136.706L572.62 136.706L231.65 136.706z" /></clipPath><clipPath id="135"><path id="" clip-rule="evenodd" transform="matrix(1 0 0 1 0 0)" d="M231.65 731.496L572.62 731.496L572.62 731.496L572.62 136.706L572.62 136.706L231.65 136.706z" /></clipPath><clipPath id="136"><path id="" clip-rule="evenodd" transform="matrix(1 0 0 1 0 0)" d="M231.65 731.496L572.62 731.496L572.62 731.496L572.62 136.706L572.62 136.706L231.65 136.706z" /></clipPath><clipPath id="137"><path id="" clip-rule="evenodd" transform="matrix(1 0 0 1 0 0)" d="M231.65 731.496L572.62 731.496L572.62 731.496L572.62 136.706L572.62 136.706L231.65 136.706z" /></clipPath><clipPath id="138"><path id="" clip-rule="evenodd" transform="matrix(1 0 0 1 0 0)" d="M231.65 731.496L572.62 731.496L572.62 731.496L572.62 136.706L572.62 136.706L231.65 136.706z" /></clipPath><clipPath id="139"><path id="" clip-rule="evenodd" transform="matrix(1 0 0 1 0 0)" d="M231.65 731.496L572.62 731.496L572.62 731.496L572.62 136.706L572.62 136.706L231.65 136.706z" /></clipPath><clipPath id="140"><path id="" clip-rule="evenodd" transform="matrix(1 0 0 1 0 0)" d="M231.65 731.496L572.62 731.496L572.62 731.496L572.62 136.706L572.62 136.706L231.65 136.706z" /></clipPath><clipPath id="141"><path id="" clip-rule="evenodd" transform="matrix(1 0 0 1 0 0)" d="M231.65 731.496L572.62 731.496L572.62 731.496L572.62 136.706L572.62 136.706L231.65 136.706z" /></clipPath><clipPath id="142"><path id="" clip-rule="evenodd" transform="matrix(1 0 0 1 0 0)" d="M231.65 731.496L572.62 731.496L572.62 731.496L572.62 136.706L572.62 136.706L231.65 136.706z" /></clipPath><clipPath id="143"><path id="" clip-rule="evenodd" transform="matrix(1 0 0 1 0 0)" d="M231.65 731.496L572.62 731.496L572.62 731.496L572.62 136.706L572.62 136.706L231.65 136.706z" /></clipPath><clipPath id="144"><path id="" clip-rule="evenodd" transform="matrix(1 0 0 1 0 0)" d="M231.65 731.496L572.62 731.496L572.62 731.496L572.62 136.706L572.62 136.706L231.65 136.706z" /></clipPath><clipPath id="145"><path id="" clip-rule="evenodd" transform="matrix(1 0 0 1 0 0)" d="M231.65 731.496L572.62 731.496L572.62 731.496L572.62 136.706L572.62 136.706L231.65 136.706z" /></clipPath><clipPath id="146"><path id="" clip-rule="evenodd" transform="matrix(1 0 0 1 0 0)" d="M231.65 731.496L572.62 731.496L572.62 731.496L572.62 136.706L572.62 136.706L231.65 136.706z" /></clipPath><clipPath id="147"><path id="" clip-rule="evenodd" transform="matrix(1 0 0 1 0 0)" d="M231.65 731.496L572.62 731.496L572.62 731.496L572.62 136.706L572.62 136.706L231.65 136.706z" /></clipPath><clipPath id="148"><path id="" clip-rule="evenodd" transform="matrix(1 0 0 1 0 0)" d="M231.65 731.496L572.62 731.496L572.62 731.496L572.62 136.706L572.62 136.706L231.65 136.706z" /></clipPath><clipPath id="149"><path id="" clip-rule="evenodd" transform="matrix(1 0 0 1 0 0)" d="M231.65 731.496L572.62 731.496L572.62 731.496L572.62 136.706L572.62 136.706L231.65 136.706z" /></clipPath><clipPath id="150"><path id="" clip-rule="evenodd" transform="matrix(1 0 0 1 0 0)" d="M231.65 731.496L572.62 731.496L572.62 731.496L572.62 136.706L572.62 136.706L231.65 136.706z" /></clipPath><clipPath id="151"><path id="" clip-rule="evenodd" transform="matrix(1 0 0 1 0 0)" d="M231.65 731.496L572.62 731.496L572.62 731.496L572.62 136.706L572.62 136.706L231.65 136.706z" /></clipPath><clipPath id="152"><path id="" clip-rule="evenodd" transform="matrix(1 0 0 1 0 0)" d="M231.65 731.496L572.62 731.496L572.62 731.496L572.62 136.706L572.62 136.706L231.65 136.706z" /></clipPath><clipPath id="153"><path id="" clip-rule="evenodd" transform="matrix(1 0 0 1 0 0)" d="M231.65 731.496L572.62 731.496L572.62 731.496L572.62 136.706L572.62 136.706L231.65 136.706z" /></clipPath><clipPath id="154"><path id="" clip-rule="evenodd" transform="matrix(1 0 0 1 0 0)" d="M231.65 731.496L572.62 731.496L572.62 731.496L572.62 136.706L572.62 136.706L231.65 136.706z" /></clipPath><clipPath id="155"><path id="" clip-rule="evenodd" transform="matrix(1 0 0 1 0 0)" d="M231.65 731.496L572.62 731.496L572.62 731.496L572.62 136.706L572.62 136.706L231.65 136.706z" /></clipPath><clipPath id="156"><path id="" clip-rule="evenodd" transform="matrix(1 0 0 1 0 0)" d="M231.65 731.496L572.62 731.496L572.62 731.496L572.62 136.706L572.62 136.706L231.65 136.706z" /></clipPath><clipPath id="157"><path id="" clip-rule="evenodd" transform="matrix(1 0 0 1 0 0)" d="M231.65 731.496L572.62 731.496L572.62 731.496L572.62 136.706L572.62 136.706L231.65 136.706z" /></clipPath><clipPath id="158"><path id="" clip-rule="evenodd" transform="matrix(1 0 0 1 0 0)" d="M231.65 731.496L572.62 731.496L572.62 731.496L572.62 136.706L572.62 136.706L231.65 136.706z" /></clipPath><clipPath id="159"><path id="" clip-rule="evenodd" transform="matrix(1 0 0 1 0 0)" d="M231.65 731.496L572.62 731.496L572.62 731.496L572.62 136.706L572.62 136.706L231.65 136.706z" /></clipPath><clipPath id="160"><path id="" clip-rule="evenodd" transform="matrix(1 0 0 1 0 0)" d="M231.65 731.496L572.62 731.496L572.62 731.496L572.62 136.706L572.62 136.706L231.65 136.706z" /></clipPath><clipPath id="161"><path id="" clip-rule="evenodd" transform="matrix(1 0 0 1 0 0)" d="M231.65 731.496L572.62 731.496L572.62 731.496L572.62 136.706L572.62 136.706L231.65 136.706z" /></clipPath><clipPath id="162"><path id="" clip-rule="evenodd" transform="matrix(1 0 0 1 0 0)" d="M231.65 731.496L572.62 731.496L572.62 731.496L572.62 136.706L572.62 136.706L231.65 136.706z" /></clipPath><clipPath id="163"><path id="" clip-rule="evenodd" transform="matrix(1 0 0 1 0 0)" d="M231.65 731.496L572.62 731.496L572.62 731.496L572.62 136.706L572.62 136.706L231.65 136.706z" /></clipPath><clipPath id="164"><path id="" clip-rule="evenodd" transform="matrix(1 0 0 1 0 0)" d="M231.65 731.496L572.62 731.496L572.62 731.496L572.62 136.706L572.62 136.706L231.65 136.706z" /></clipPath><clipPath id="165"><path id="" clip-rule="evenodd" transform="matrix(1 0 0 1 0 0)" d="M231.65 731.496L572.62 731.496L572.62 731.496L572.62 136.706L572.62 136.706L231.65 136.706z" /></clipPath><clipPath id="166"><path id="" clip-rule="evenodd" transform="matrix(1 0 0 1 0 0)" d="M231.65 731.496L572.62 731.496L572.62 731.496L572.62 136.706L572.62 136.706L231.65 136.706z" /></clipPath><clipPath id="167"><path id="" clip-rule="evenodd" transform="matrix(1 0 0 1 0 0)" d="M231.65 731.496L572.62 731.496L572.62 731.496L572.62 136.706L572.62 136.706L231.65 136.706z" /></clipPath><clipPath id="168"><path id="" clip-rule="evenodd" transform="matrix(1 0 0 1 0 0)" d="M231.65 731.496L572.62 731.496L572.62 731.496L572.62 136.706L572.62 136.706L231.65 136.706z" /></clipPath><clipPath id="169"><path id="" clip-rule="evenodd" transform="matrix(1 0 0 1 0 0)" d="M231.65 731.496L572.62 731.496L572.62 731.496L572.62 136.706L572.62 136.706L231.65 136.706z" /></clipPath><clipPath id="170"><path id="" clip-rule="evenodd" transform="matrix(1 0 0 1 0 0)" d="M231.65 731.496L572.62 731.496L572.62 731.496L572.62 136.706L572.62 136.706L231.65 136.706z" /></clipPath><clipPath id="171"><path id="" clip-rule="evenodd" transform="matrix(1 0 0 1 0 0)" d="M231.65 731.496L572.62 731.496L572.62 731.496L572.62 136.706L572.62 136.706L231.65 136.706z" /></clipPath><clipPath id="172"><path id="" clip-rule="evenodd" transform="matrix(1 0 0 1 0 0)" d="M231.65 731.496L572.62 731.496L572.62 731.496L572.62 136.706L572.62 136.706L231.65 136.706z" /></clipPath><clipPath id="173"><path id="" clip-rule="evenodd" transform="matrix(1 0 0 1 0 0)" d="M231.65 731.496L572.62 731.496L572.62 731.496L572.62 136.706L572.62 136.706L231.65 136.706z" /></clipPath><clipPath id="174"><path id="" clip-rule="evenodd" transform="matrix(1 0 0 1 0 0)" d="M231.65 731.496L572.62 731.496L572.62 731.496L572.62 136.706L572.62 136.706L231.65 136.706z" /></clipPath><clipPath id="175"><path id="" clip-rule="evenodd" transform="matrix(1 0 0 1 0 0)" d="M231.65 731.496L572.62 731.496L572.62 731.496L572.62 136.706L572.62 136.706L231.65 136.706z" /></clipPath><clipPath id="176"><path id="" clip-rule="evenodd" transform="matrix(1 0 0 1 0 0)" d="M231.65 731.496L572.62 731.496L572.62 731.496L572.62 136.706L572.62 136.706L231.65 136.706z" /></clipPath><clipPath id="177"><path id="" clip-rule="evenodd" transform="matrix(1 0 0 1 0 0)" d="M231.65 731.496L572.62 731.496L572.62 731.496L572.62 136.706L572.62 136.706L231.65 136.706z" /></clipPath><clipPath id="178"><path id="" clip-rule="evenodd" transform="matrix(1 0 0 1 0 0)" d="M231.65 731.496L572.62 731.496L572.62 731.496L572.62 136.706L572.62 136.706L231.65 136.706z" /></clipPath><clipPath id="179"><path id="" clip-rule="evenodd" transform="matrix(1 0 0 1 0 0)" d="M231.65 731.496L572.62 731.496L572.62 731.496L572.62 136.706L572.62 136.706L231.65 136.706z" /></clipPath><clipPath id="180"><path id="" clip-rule="evenodd" transform="matrix(1 0 0 1 0 0)" d="M231.65 731.496L572.62 731.496L572.62 731.496L572.62 136.706L572.62 136.706L231.65 136.706z" /></clipPath><clipPath id="181"><path id="" clip-rule="evenodd" transform="matrix(1 0 0 1 0 0)" d="M231.65 731.496L572.62 731.496L572.62 731.496L572.62 136.706L572.62 136.706L231.65 136.706z" /></clipPath><clipPath id="182"><path id="" clip-rule="evenodd" transform="matrix(1 0 0 1 0 0)" d="M231.65 731.496L572.62 731.496L572.62 731.496L572.62 136.706L572.62 136.706L231.65 136.706z" /></clipPath><clipPath id="183"><path id="" clip-rule="evenodd" transform="matrix(1 0 0 1 0 0)" d="M231.65 731.496L572.62 731.496L572.62 731.496L572.62 136.706L572.62 136.706L231.65 136.706z" /></clipPath><clipPath id="184"><path id="" clip-rule="evenodd" transform="matrix(1 0 0 1 0 0)" d="M231.65 731.496L572.62 731.496L572.62 731.496L572.62 136.706L572.62 136.706L231.65 136.706z" /></clipPath><clipPath id="185"><path id="" clip-rule="evenodd" transform="matrix(1 0 0 1 0 0)" d="M231.65 731.496L572.62 731.496L572.62 731.496L572.62 136.706L572.62 136.706L231.65 136.706z" /></clipPath><clipPath id="186"><path id="" clip-rule="evenodd" transform="matrix(1 0 0 1 0 0)" d="M231.65 731.496L572.62 731.496L572.62 731.496L572.62 136.706L572.62 136.706L231.65 136.706z" /></clipPath><clipPath id="187"><path id="" clip-rule="evenodd" transform="matrix(1 0 0 1 0 0)" d="M231.65 731.496L572.62 731.496L572.62 731.496L572.62 136.706L572.62 136.706L231.65 136.706z" /></clipPath><clipPath id="188"><path id="" clip-rule="evenodd" transform="matrix(1 0 0 1 0 0)" d="M231.65 731.496L572.62 731.496L572.62 731.496L572.62 136.706L572.62 136.706L231.65 136.706z" /></clipPath><clipPath id="189"><path id="" clip-rule="evenodd" transform="matrix(1 0 0 1 0 0)" d="M231.65 731.496L572.62 731.496L572.62 731.496L572.62 136.706L572.62 136.706L231.65 136.706z" /></clipPath><clipPath id="190"><path id="" clip-rule="evenodd" transform="matrix(1 0 0 1 0 0)" d="M231.65 731.496L572.62 731.496L572.62 731.496L572.62 136.706L572.62 136.706L231.65 136.706z" /></clipPath><clipPath id="191"><path id="" clip-rule="evenodd" transform="matrix(1 0 0 1 0 0)" d="M231.65 731.496L572.62 731.496L572.62 731.496L572.62 136.706L572.62 136.706L231.65 136.706z" /></clipPath><clipPath id="192"><path id="" clip-rule="evenodd" transform="matrix(1 0 0 1 0 0)" d="M231.65 731.496L572.62 731.496L572.62 731.496L572.62 136.706L572.62 136.706L231.65 136.706z" /></clipPath><clipPath id="193"><path id="" clip-rule="evenodd" transform="matrix(1 0 0 1 0 0)" d="M231.65 731.496L572.62 731.496L572.62 731.496L572.62 136.706L572.62 136.706L231.65 136.706z" /></clipPath><clipPath id="194"><path id="" clip-rule="evenodd" transform="matrix(1 0 0 1 0 0)" d="M231.65 731.496L572.62 731.496L572.62 731.496L572.62 136.706L572.62 136.706L231.65 136.706z" /></clipPath><clipPath id="195"><path id="" clip-rule="evenodd" transform="matrix(1 0 0 1 0 0)" d="M231.65 731.496L572.62 731.496L572.62 731.496L572.62 136.706L572.62 136.706L231.65 136.706z" /></clipPath><clipPath id="196"><path id="" clip-rule="evenodd" transform="matrix(1 0 0 1 0 0)" d="M231.65 731.496L572.62 731.496L572.62 731.496L572.62 136.706L572.62 136.706L231.65 136.706z" /></clipPath><clipPath id="197"><path id="" clip-rule="evenodd" transform="matrix(1 0 0 1 0 0)" d="M231.65 731.496L572.62 731.496L572.62 731.496L572.62 136.706L572.62 136.706L231.65 136.706z" /></clipPath><clipPath id="198"><path id="" clip-rule="evenodd" transform="matrix(1 0 0 1 0 0)" d="M231.65 731.496L572.62 731.496L572.62 731.496L572.62 136.706L572.62 136.706L231.65 136.706z" /></clipPath><clipPath id="199"><path id="" clip-rule="evenodd" transform="matrix(1 0 0 1 0 0)" d="M231.65 731.496L572.62 731.496L572.62 731.496L572.62 136.706L572.62 136.706L231.65 136.706z" /></clipPath><clipPath id="200"><path id="" clip-rule="evenodd" transform="matrix(1 0 0 1 0 0)" d="M231.65 731.496L572.62 731.496L572.62 731.496L572.62 136.706L572.62 136.706L231.65 136.706z" /></clipPath><clipPath id="201"><path id="" clip-rule="evenodd" transform="matrix(1 0 0 1 0 0)" d="M231.65 731.496L572.62 731.496L572.62 731.496L572.62 136.706L572.62 136.706L231.65 136.706z" /></clipPath><clipPath id="202"><path id="" clip-rule="evenodd" transform="matrix(1 0 0 1 0 0)" d="M231.65 731.496L572.62 731.496L572.62 731.496L572.62 136.706L572.62 136.706L231.65 136.706z" /></clipPath><clipPath id="203"><path id="" clip-rule="evenodd" transform="matrix(1 0 0 1 0 0)" d="M231.65 731.496L572.62 731.496L572.62 731.496L572.62 136.706L572.62 136.706L231.65 136.706z" /></clipPath><clipPath id="204"><path id="" clip-rule="evenodd" transform="matrix(1 0 0 1 0 0)" d="M231.65 731.496L572.62 731.496L572.62 731.496L572.62 136.706L572.62 136.706L231.65 136.706z" /></clipPath><clipPath id="205"><path id="" clip-rule="evenodd" transform="matrix(1 0 0 1 0 0)" d="M231.65 731.496L572.62 731.496L572.62 731.496L572.62 136.706L572.62 136.706L231.65 136.706z" /></clipPath><clipPath id="206"><path id="" clip-rule="evenodd" transform="matrix(1 0 0 1 0 0)" d="M231.65 731.496L572.62 731.496L572.62 731.496L572.62 136.706L572.62 136.706L231.65 136.706z" /></clipPath><clipPath id="207"><path id="" clip-rule="evenodd" transform="matrix(1 0 0 1 0 0)" d="M231.65 731.496L572.62 731.496L572.62 731.496L572.62 136.706L572.62 136.706L231.65 136.706z" /></clipPath><clipPath id="208"><path id="" clip-rule="evenodd" transform="matrix(1 0 0 1 0 0)" d="M231.65 731.496L572.62 731.496L572.62 731.496L572.62 136.706L572.62 136.706L231.65 136.706z" /></clipPath><clipPath id="209"><path id="" clip-rule="evenodd" transform="matrix(1 0 0 1 0 0)" d="M231.65 731.496L572.62 731.496L572.62 731.496L572.62 136.706L572.62 136.706L231.65 136.706z" /></clipPath><clipPath id="210"><path id="" clip-rule="evenodd" transform="matrix(1 0 0 1 0 0)" d="M231.65 731.496L572.62 731.496L572.62 731.496L572.62 136.706L572.62 136.706L231.65 136.706z" /></clipPath><clipPath id="211"><path id="" clip-rule="evenodd" transform="matrix(1 0 0 1 0 0)" d="M231.65 731.496L572.62 731.496L572.62 731.496L572.62 136.706L572.62 136.706L231.65 136.706z" /></clipPath><clipPath id="212"><path id="" clip-rule="evenodd" transform="matrix(1 0 0 1 0 0)" d="M231.65 731.496L572.62 731.496L572.62 731.496L572.62 136.706L572.62 136.706L231.65 136.706z" /></clipPath><clipPath id="213"><path id="" clip-rule="evenodd" transform="matrix(1 0 0 1 0 0)" d="M231.65 731.496L572.62 731.496L572.62 731.496L572.62 136.706L572.62 136.706L231.65 136.706z" /></clipPath><clipPath id="214"><path id="" clip-rule="evenodd" transform="matrix(1 0 0 1 0 0)" d="M231.65 731.496L572.62 731.496L572.62 731.496L572.62 136.706L572.62 136.706L231.65 136.706z" /></clipPath><clipPath id="215"><path id="" clip-rule="evenodd" transform="matrix(1 0 0 1 0 0)" d="M231.65 731.496L572.62 731.496L572.62 731.496L572.62 136.706L572.62 136.706L231.65 136.706z" /></clipPath><clipPath id="216"><path id="" clip-rule="evenodd" transform="matrix(1 0 0 1 0 0)" d="M231.65 731.496L572.62 731.496L572.62 731.496L572.62 136.706L572.62 136.706L231.65 136.706z" /></clipPath><clipPath id="217"><path id="" clip-rule="evenodd" transform="matrix(1 0 0 1 0 0)" d="M231.65 731.496L572.62 731.496L572.62 731.496L572.62 136.706L572.62 136.706L231.65 136.706z" /></clipPath><clipPath id="218"><path id="" clip-rule="evenodd" transform="matrix(1 0 0 1 0 0)" d="M231.65 731.496L572.62 731.496L572.62 731.496L572.62 136.706L572.62 136.706L231.65 136.706z" /></clipPath><clipPath id="219"><path id="" clip-rule="evenodd" transform="matrix(1 0 0 1 0 0)" d="M231.65 731.496L572.62 731.496L572.62 731.496L572.62 136.706L572.62 136.706L231.65 136.706z" /></clipPath><clipPath id="220"><path id="" clip-rule="evenodd" transform="matrix(1 0 0 1 0 0)" d="M231.65 731.496L572.62 731.496L572.62 731.496L572.62 136.706L572.62 136.706L231.65 136.706z" /></clipPath><clipPath id="221"><path id="" clip-rule="evenodd" transform="matrix(1 0 0 1 0 0)" d="M231.65 731.496L572.62 731.496L572.62 731.496L572.62 136.706L572.62 136.706L231.65 136.706z" /></clipPath><clipPath id="222"><path id="" clip-rule="evenodd" transform="matrix(1 0 0 1 0 0)" d="M231.65 731.496L572.62 731.496L572.62 731.496L572.62 136.706L572.62 136.706L231.65 136.706z" /></clipPath><clipPath id="223"><path id="" clip-rule="evenodd" transform="matrix(1 0 0 1 0 0)" d="M231.65 731.496L572.62 731.496L572.62 731.496L572.62 136.706L572.62 136.706L231.65 136.706z" /></clipPath><clipPath id="224"><path id="" clip-rule="evenodd" transform="matrix(1 0 0 1 0 0)" d="M231.65 731.496L572.62 731.496L572.62 731.496L572.62 136.706L572.62 136.706L231.65 136.706z" /></clipPath><clipPath id="225"><path id="" clip-rule="evenodd" transform="matrix(1 0 0 1 0 0)" d="M231.65 731.496L572.62 731.496L572.62 731.496L572.62 136.706L572.62 136.706L231.65 136.706z" /></clipPath><clipPath id="226"><path id="" clip-rule="evenodd" transform="matrix(1 0 0 1 0 0)" d="M231.65 731.496L572.62 731.496L572.62 731.496L572.62 136.706L572.62 136.706L231.65 136.706z" /></clipPath><clipPath id="227"><path id="" clip-rule="evenodd" transform="matrix(1 0 0 1 0 0)" d="M231.65 731.496L572.62 731.496L572.62 731.496L572.62 136.706L572.62 136.706L231.65 136.706z" /></clipPath><clipPath id="228"><path id="" clip-rule="evenodd" transform="matrix(1 0 0 1 0 0)" d="M231.65 731.496L572.62 731.496L572.62 731.496L572.62 136.706L572.62 136.706L231.65 136.706z" /></clipPath><clipPath id="229"><path id="" clip-rule="evenodd" transform="matrix(1 0 0 1 0 0)" d="M231.65 731.496L572.62 731.496L572.62 731.496L572.62 136.706L572.62 136.706L231.65 136.706z" /></clipPath><clipPath id="230"><path id="" clip-rule="evenodd" transform="matrix(1 0 0 1 0 0)" d="M231.65 731.496L572.62 731.496L572.62 731.496L572.62 136.706L572.62 136.706L231.65 136.706z" /></clipPath><clipPath id="231"><path id="" clip-rule="evenodd" transform="matrix(1 0 0 1 0 0)" d="M231.65 731.496L572.62 731.496L572.62 731.496L572.62 136.706L572.62 136.706L231.65 136.706z" /></clipPath><clipPath id="232"><path id="" clip-rule="evenodd" transform="matrix(1 0 0 1 0 0)" d="M231.65 731.496L572.62 731.496L572.62 731.496L572.62 136.706L572.62 136.706L231.65 136.706z" /></clipPath><clipPath id="233"><path id="" clip-rule="evenodd" transform="matrix(1 0 0 1 0 0)" d="M231.65 731.496L572.62 731.496L572.62 731.496L572.62 136.706L572.62 136.706L231.65 136.706z" /></clipPath><clipPath id="234"><path id="" clip-rule="evenodd" transform="matrix(1 0 0 1 0 0)" d="M231.65 731.496L572.62 731.496L572.62 731.496L572.62 136.706L572.62 136.706L231.65 136.706z" /></clipPath><clipPath id="235"><path id="" clip-rule="evenodd" transform="matrix(1 0 0 1 0 0)" d="M231.65 731.496L572.62 731.496L572.62 731.496L572.62 136.706L572.62 136.706L231.65 136.706z" /></clipPath><clipPath id="236"><path id="" clip-rule="evenodd" transform="matrix(1 0 0 1 0 0)" d="M231.65 731.496L572.62 731.496L572.62 731.496L572.62 136.706L572.62 136.706L231.65 136.706z" /></clipPath><clipPath id="237"><path id="" clip-rule="evenodd" transform="matrix(1 0 0 1 0 0)" d="M231.65 731.496L572.62 731.496L572.62 731.496L572.62 136.706L572.62 136.706L231.65 136.706z" /></clipPath><clipPath id="238"><path id="" clip-rule="evenodd" transform="matrix(1 0 0 1 0 0)" d="M231.65 731.496L572.62 731.496L572.62 731.496L572.62 136.706L572.62 136.706L231.65 136.706z" /></clipPath><clipPath id="239"><path id="" clip-rule="evenodd" transform="matrix(1 0 0 1 0 0)" d="M231.65 731.496L572.62 731.496L572.62 731.496L572.62 136.706L572.62 136.706L231.65 136.706z" /></clipPath><clipPath id="240"><path id="" clip-rule="evenodd" transform="matrix(1 0 0 1 0 0)" d="M231.65 731.496L572.62 731.496L572.62 731.496L572.62 136.706L572.62 136.706L231.65 136.706z" /></clipPath><clipPath id="241"><path id="" clip-rule="evenodd" transform="matrix(1 0 0 1 0 0)" d="M231.65 731.496L572.62 731.496L572.62 731.496L572.62 136.706L572.62 136.706L231.65 136.706z" /></clipPath><clipPath id="242"><path id="" clip-rule="evenodd" transform="matrix(1 0 0 1 0 0)" d="M231.65 731.496L572.62 731.496L572.62 731.496L572.62 136.706L572.62 136.706L231.65 136.706z" /></clipPath><clipPath id="243"><path id="" clip-rule="evenodd" transform="matrix(1 0 0 1 0 0)" d="M231.65 731.496L572.62 731.496L572.62 731.496L572.62 136.706L572.62 136.706L231.65 136.706z" /></clipPath><clipPath id="244"><path id="" clip-rule="evenodd" transform="matrix(1 0 0 1 0 0)" d="M231.65 731.496L572.62 731.496L572.62 731.496L572.62 136.706L572.62 136.706L231.65 136.706z" /></clipPath><clipPath id="245"><path id="" clip-rule="evenodd" transform="matrix(1 0 0 1 0 0)" d="M231.65 731.496L572.62 731.496L572.62 731.496L572.62 136.706L572.62 136.706L231.65 136.706z" /></clipPath><clipPath id="246"><path id="" clip-rule="evenodd" transform="matrix(1 0 0 1 0 0)" d="M231.65 731.496L572.62 731.496L572.62 731.496L572.62 136.706L572.62 136.706L231.65 136.706z" /></clipPath><clipPath id="247"><path id="" clip-rule="evenodd" transform="matrix(1 0 0 1 0 0)" d="M231.65 731.496L572.62 731.496L572.62 731.496L572.62 136.706L572.62 136.706L231.65 136.706z" /></clipPath><clipPath id="248"><path id="" clip-rule="evenodd" transform="matrix(1 0 0 1 0 0)" d="M231.65 731.496L572.62 731.496L572.62 731.496L572.62 136.706L572.62 136.706L231.65 136.706z" /></clipPath><clipPath id="249"><path id="" clip-rule="evenodd" transform="matrix(1 0 0 1 0 0)" d="M231.65 731.496L572.62 731.496L572.62 731.496L572.62 136.706L572.62 136.706L231.65 136.706z" /></clipPath><clipPath id="250"><path id="" clip-rule="evenodd" transform="matrix(1 0 0 1 0 0)" d="M231.65 731.496L572.62 731.496L572.62 731.496L572.62 136.706L572.62 136.706L231.65 136.706z" /></clipPath><clipPath id="251"><path id="" clip-rule="evenodd" transform="matrix(1 0 0 1 0 0)" d="M231.65 731.496L572.62 731.496L572.62 731.496L572.62 136.706L572.62 136.706L231.65 136.706z" /></clipPath><clipPath id="252"><path id="" clip-rule="evenodd" transform="matrix(1 0 0 1 0 0)" d="M231.65 731.496L572.62 731.496L572.62 731.496L572.62 136.706L572.62 136.706L231.65 136.706z" /></clipPath><clipPath id="253"><path id="" clip-rule="evenodd" transform="matrix(1 0 0 1 0 0)" d="M231.65 731.496L572.62 731.496L572.62 731.496L572.62 136.706L572.62 136.706L231.65 136.706z" /></clipPath><clipPath id="254"><path id="" clip-rule="evenodd" transform="matrix(1 0 0 1 0 0)" d="M231.65 731.496L572.62 731.496L572.62 731.496L572.62 136.706L572.62 136.706L231.65 136.706z" /></clipPath><clipPath id="255"><path id="" clip-rule="evenodd" transform="matrix(1 0 0 1 0 0)" d="M231.65 731.496L572.62 731.496L572.62 731.496L572.62 136.706L572.62 136.706L231.65 136.706z" /></clipPath><clipPath id="256"><path id="" clip-rule="evenodd" transform="matrix(1 0 0 1 0 0)" d="M231.65 731.496L572.62 731.496L572.62 731.496L572.62 136.706L572.62 136.706L231.65 136.706z" /></clipPath><clipPath id="257"><path id="" clip-rule="evenodd" transform="matrix(1 0 0 1 0 0)" d="M231.65 731.496L572.62 731.496L572.62 731.496L572.62 136.706L572.62 136.706L231.65 136.706z" /></clipPath><clipPath id="258"><path id="" clip-rule="evenodd" transform="matrix(1 0 0 1 0 0)" d="M231.65 731.496L572.62 731.496L572.62 731.496L572.62 136.706L572.62 136.706L231.65 136.706z" /></clipPath><clipPath id="259"><path id="" clip-rule="evenodd" transform="matrix(1 0 0 1 0 0)" d="M231.65 731.496L572.62 731.496L572.62 731.496L572.62 136.706L572.62 136.706L231.65 136.706z" /></clipPath><clipPath id="260"><path id="" clip-rule="evenodd" transform="matrix(1 0 0 1 0 0)" d="M-5.542E-06 791.9998L612 791.9998L612 791.9998L612 -0.0002441406L612 -0.0002441406L-5.542E-06 -0.0002441406z" /></clipPath></defs><g transform="matrix(1.333333 0 0 1.333333 0 0)"><g clip-path="url(#1)"><g clip-path="url(#2)"></g><g clip-path="url(#3)"></g><g clip-path="url(#4)"></g><g clip-path="url(#5)"><path id="17" transform="matrix(1 0 0 -1 0 792)" d="M-35.15 760.2L663.9 760.2L663.9 760.2L663.9 797L663.9 797L-35.15 797z" stroke="none" fill="#0295A8" fill-rule="evenodd" /></g><path id="18" transform="matrix(1 0 0 -1 0 792)" d="M45.5 680.6L570.55 679.95" stroke="#BFBFBF" stroke-width="0.5" fill="none" /><path id="19" transform="matrix(1 0 0 -1 0 792)" d="M42.55 75.4L224.2 75.4L224.2 75.4L224.2 670.65L224.2 670.65L42.55 670.65z" stroke="none" fill="#D6DCE5" fill-rule="evenodd" fill-opacity="0.3490196" /><g clip-path="url(#6)"><g clip-path="url(#7)"></g><g clip-path="url(#8)"></g><g clip-path="url(#9)"></g><g clip-path="url(#10)"></g><g clip-path="url(#11)"></g><g clip-path="url(#12)"></g><g clip-path="url(#13)"></g><g clip-path="url(#14)"></g><g clip-path="url(#15)"></g><g clip-path="url(#16)"></g><g clip-path="url(#17)"></g><g clip-path="url(#18)"></g><g clip-path="url(#19)"></g><g clip-path="url(#20)"></g><g clip-path="url(#21)"></g><g clip-path="url(#22)"></g><g clip-path="url(#23)"></g><g clip-path="url(#24)"></g><g clip-path="url(#25)"></g><g clip-path="url(#26)"></g><g clip-path="url(#27)"></g><g clip-path="url(#28)"></g><g clip-path="url(#29)"></g><g clip-path="url(#30)"></g><g clip-path="url(#31)"></g><g clip-path="url(#32)"></g><g clip-path="url(#33)"></g><g clip-path="url(#34)"></g><g clip-path="url(#35)"></g><g clip-path="url(#36)"></g><g clip-path="url(#37)"></g><g clip-path="url(#38)"></g><g clip-path="url(#39)"></g><g clip-path="url(#40)"></g><g clip-path="url(#41)"></g><g clip-path="url(#42)"></g><g clip-path="url(#43)"></g><g clip-path="url(#44)"></g><g clip-path="url(#45)"></g><g clip-path="url(#46)"></g><g clip-path="url(#47)"></g><g clip-path="url(#48)"></g><g clip-path="url(#49)"></g><g clip-path="url(#50)"></g><g clip-path="url(#51)"></g><g clip-path="url(#52)"></g><g clip-path="url(#53)"></g><g clip-path="url(#54)"></g><g clip-path="url(#55)"></g><g clip-path="url(#56)"></g><g clip-path="url(#57)"></g><g clip-path="url(#58)"></g><g clip-path="url(#59)"></g><g clip-path="url(#60)"></g><g clip-path="url(#61)"></g><g clip-path="url(#62)"></g><g clip-path="url(#63)"></g><g clip-path="url(#64)"></g><g clip-path="url(#65)"></g><g clip-path="url(#66)"></g><g clip-path="url(#67)"></g><g clip-path="url(#68)"></g><g clip-path="url(#69)"></g><g clip-path="url(#70)"></g><g clip-path="url(#71)"></g><g clip-path="url(#72)"></g><g clip-path="url(#73)"></g><g clip-path="url(#74)"></g><g clip-path="url(#75)"></g><g clip-path="url(#76)"></g><g clip-path="url(#77)"></g><g clip-path="url(#78)"></g></g><path id="349" transform="matrix(1 0 0 -1 0 792)" d="M57.75 633.1L202.55 633.1" stroke="#BFBFBF" stroke-width="0.5" fill="none" /><path id="350" transform="matrix(1 0 0 -1 0 792)" d="M57.75 337.55L204.15 337.55" stroke="#BFBFBF" stroke-width="0.5" fill="none" /><path id="351" transform="matrix(1 0 0 -1 0 792)" d="M144.6 323.4C 144.6 325.75 146.5 327.65 148.85 327.65C 151.2 327.65 153.1 325.75 153.1 323.4C 153.1 321.06 151.2 319.15 148.85 319.15C 146.5 319.15 144.6 321.06 144.6 323.4z" stroke="none" fill="#0295A8" fill-rule="evenodd" /><path id="352" transform="matrix(1 0 0 -1 0 792)" d="M154.6 323.3C 154.6 325.65 156.5 327.55 158.85 327.55C 161.2 327.55 163.1 325.65 163.1 323.3C 163.1 320.96 161.2 319.05 158.85 319.05C 156.5 319.05 154.6 320.96 154.6 323.3z" stroke="none" fill="#0295A8" fill-rule="evenodd" /><path id="353" transform="matrix(1 0 0 -1 0 792)" d="M164.85 323.4C 164.85 325.75 166.75 327.65 169.1 327.65C 171.45 327.65 173.35 325.75 173.35 323.4C 173.35 321.06 171.45 319.15 169.1 319.15C 166.75 319.15 164.85 321.06 164.85 323.4z" stroke="none" fill="#0295A8" fill-rule="evenodd" /><path id="354" transform="matrix(1 0 0 -1 0 792)" d="M174.8 323.3C 174.8 325.65 176.7 327.55 179.05 327.55C 181.4 327.55 183.3 325.65 183.3 323.3C 183.3 320.96 181.4 319.05 179.05 319.05C 176.7 319.05 174.8 320.96 174.8 323.3z" stroke="none" fill="#0295A8" fill-rule="evenodd" /><path id="355" transform="matrix(1 0 0 -1 0 792)" d="M184.65 323.35C 184.65 325.7 186.55 327.6 188.9 327.6C 191.25 327.6 193.15 325.7 193.15 323.35C 193.15 321.01 191.25 319.1 188.9 319.1C 186.55 319.1 184.65 321.01 184.65 323.35z" stroke="none" fill="#BFBFBF" fill-rule="evenodd" /><g clip-path="url(#79)"><g clip-path="url(#80)"></g><g clip-path="url(#81)"></g><g clip-path="url(#82)"></g><g clip-path="url(#83)"></g><g clip-path="url(#84)"></g><g clip-path="url(#85)"></g><g clip-path="url(#86)"></g><g clip-path="url(#87)"></g><g clip-path="url(#88)"></g><g clip-path="url(#89)"></g><g clip-path="url(#90)"></g><g clip-path="url(#91)"></g><g clip-path="url(#92)"></g><g clip-path="url(#93)"></g><g clip-path="url(#94)"></g><g clip-path="url(#95)"></g><g clip-path="url(#96)"></g><g clip-path="url(#97)"></g><g clip-path="url(#98)"></g><g clip-path="url(#99)"></g><g clip-path="url(#100)"></g><g clip-path="url(#101)"></g><g clip-path="url(#102)"></g><g clip-path="url(#103)"></g><g clip-path="url(#104)"></g><g clip-path="url(#105)"></g><g clip-path="url(#106)"></g><g clip-path="url(#107)"></g><g clip-path="url(#108)"></g><g clip-path="url(#109)"></g><g clip-path="url(#110)"></g><g clip-path="url(#111)"></g><g clip-path="url(#112)"></g><g clip-path="url(#113)"></g><g clip-path="url(#114)"></g><g clip-path="url(#115)"></g><g clip-path="url(#116)"></g><g clip-path="url(#117)"></g><g clip-path="url(#118)"></g><g clip-path="url(#119)"></g><g clip-path="url(#120)"></g><g clip-path="url(#121)"></g><g clip-path="url(#122)"></g><g clip-path="url(#123)"></g><g clip-path="url(#124)"></g><g clip-path="url(#125)"></g><g clip-path="url(#126)"></g><g clip-path="url(#127)"></g><g clip-path="url(#128)"></g><g clip-path="url(#129)"></g><g clip-path="url(#130)"></g><g clip-path="url(#131)"></g><g clip-path="url(#132)"></g><g clip-path="url(#133)"></g><g clip-path="url(#134)"></g><g clip-path="url(#135)"></g><g clip-path="url(#136)"></g><g clip-path="url(#137)"></g><g clip-path="url(#138)"></g><g clip-path="url(#139)"></g><g clip-path="url(#140)"></g><g clip-path="url(#141)"></g><g clip-path="url(#142)"></g><g clip-path="url(#143)"></g><g clip-path="url(#144)"></g><g clip-path="url(#145)"></g><g clip-path="url(#146)"></g><g clip-path="url(#147)"></g><g clip-path="url(#148)"></g><g clip-path="url(#149)"></g><g clip-path="url(#150)"></g><g clip-path="url(#151)"></g><g clip-path="url(#152)"></g><g clip-path="url(#153)"></g><g clip-path="url(#154)"></g><g clip-path="url(#155)"></g><g clip-path="url(#156)"></g><g clip-path="url(#157)"></g><g clip-path="url(#158)"></g><g clip-path="url(#159)"></g><g clip-path="url(#160)"></g><g clip-path="url(#161)"></g><g clip-path="url(#162)"></g><g clip-path="url(#163)"></g><g clip-path="url(#164)"></g><g clip-path="url(#165)"></g><g clip-path="url(#166)"></g><g clip-path="url(#167)"></g><g clip-path="url(#168)"></g><g clip-path="url(#169)"></g><g clip-path="url(#170)"></g><g clip-path="url(#171)"></g><g clip-path="url(#172)"></g><g clip-path="url(#173)"></g><g clip-path="url(#174)"></g><g clip-path="url(#175)"></g><g clip-path="url(#176)"></g><g clip-path="url(#177)"></g><g clip-path="url(#178)"></g><g clip-path="url(#179)"></g><g clip-path="url(#180)"></g><g clip-path="url(#181)"></g><g clip-path="url(#182)"></g><g clip-path="url(#183)"></g><g clip-path="url(#184)"></g><g clip-path="url(#185)"></g><g clip-path="url(#186)"></g><g clip-path="url(#187)"></g><g clip-path="url(#188)"></g><g clip-path="url(#189)"></g><g clip-path="url(#190)"></g><g clip-path="url(#191)"></g><g clip-path="url(#192)"></g><g clip-path="url(#193)"></g><g clip-path="url(#194)"></g><g clip-path="url(#195)"></g><g clip-path="url(#196)"></g><g clip-path="url(#197)"></g><g clip-path="url(#198)"></g><g clip-path="url(#199)"></g><g clip-path="url(#200)"></g><g clip-path="url(#201)"></g><g clip-path="url(#202)"></g><g clip-path="url(#203)"></g><g clip-path="url(#204)"></g><g clip-path="url(#205)"></g><g clip-path="url(#206)"></g><g clip-path="url(#207)"></g><g clip-path="url(#208)"></g><g clip-path="url(#209)"></g><g clip-path="url(#210)"></g><g clip-path="url(#211)"></g><g clip-path="url(#212)"></g><g clip-path="url(#213)"></g><g clip-path="url(#214)"></g><g clip-path="url(#215)"></g><g clip-path="url(#216)"></g><g clip-path="url(#217)"></g><g clip-path="url(#218)"></g><g clip-path="url(#219)"></g><g clip-path="url(#220)"></g><g clip-path="url(#221)"></g><g clip-path="url(#222)"></g><g clip-path="url(#223)"></g><g clip-path="url(#224)"></g><g clip-path="url(#225)"></g><g clip-path="url(#226)"></g><g clip-path="url(#227)"></g><g clip-path="url(#228)"></g><g clip-path="url(#229)"></g><g clip-path="url(#230)"></g><g clip-path="url(#231)"></g><g clip-path="url(#232)"></g><g clip-path="url(#233)"></g><g clip-path="url(#234)"></g><g clip-path="url(#235)"></g><g clip-path="url(#236)"></g><g clip-path="url(#237)"></g><g clip-path="url(#238)"></g><g clip-path="url(#239)"></g><g clip-path="url(#240)"></g><g clip-path="url(#241)"></g><g clip-path="url(#242)"></g><g clip-path="url(#243)"></g><g clip-path="url(#244)"></g><g clip-path="url(#245)"></g><g clip-path="url(#246)"></g><g clip-path="url(#247)"></g><g clip-path="url(#248)"></g><g clip-path="url(#249)"></g><g clip-path="url(#250)"></g><g clip-path="url(#251)"></g><g clip-path="url(#252)"></g><g clip-path="url(#253)"></g><g clip-path="url(#254)"></g><g clip-path="url(#255)"></g><g clip-path="url(#256)"></g><g clip-path="url(#257)"></g><g clip-path="url(#258)"></g><g clip-path="url(#259)"></g></g><g clip-path="url(#260)"><path id="1314" transform="matrix(1 0 0 -1 0 792)" d="M-37.65 -20.696L671.45 -20.696L671.45 -20.696L671.45 32.004L671.45 32.004L-37.65 32.004z" stroke="none" fill="#0295A8" fill-rule="evenodd" /></g><path id="1315" transform="matrix(1 0 0 -1 0 792)" d="M246.55 632.4L567.75 633.75" stroke="#BFBFBF" stroke-width="0.5" fill="none" /><path id="1316" transform="matrix(1 0 0 -1 0 792)" d="M247.2 481.6L567.7 482.95" stroke="#BFBFBF" stroke-width="0.5" fill="none" /><path id="1317" transform="matrix(1 0 0 -1 0 792)" d="M245.15 353.9L567 353.9" stroke="#BFBFBF" stroke-width="0.5" fill="none" /><path id="1318" transform="matrix(1 0 0 -1 0 792)" d="M247.2 130.4L568.45 130.4" stroke="#BFBFBF" stroke-width="0.5" fill="none" /><path id="1319" transform="matrix(1 0 0 -1 0 792)" d="M466.4 114.85C 466.4 117.2 468.3 119.1 470.65 119.1C 473 119.1 474.9 117.2 474.9 114.85C 474.9 112.51 473 110.6 470.65 110.6C 468.3 110.6 466.4 112.51 466.4 114.85z" stroke="none" fill="#0295A8" fill-rule="evenodd" /><path id="1320" transform="matrix(1 0 0 -1 0 792)" d="M477.08 114.86C 477.08 117.2 478.98 119.1 481.33 119.1C 483.68 119.1 485.58 117.2 485.58 114.86C 485.58 112.51 483.68 110.61 481.33 110.61C 478.98 110.61 477.08 112.51 477.08 114.86z" stroke="none" fill="#0295A8" fill-rule="evenodd" /><path id="1321" transform="matrix(1 0 0 -1 0 792)" d="M498.05 114.86C 498.05 117.2 499.95 119.1 502.3 119.1C 504.64 119.1 506.55 117.2 506.55 114.86C 506.55 112.51 504.64 110.61 502.3 110.61C 499.95 110.61 498.05 112.51 498.05 114.86z" stroke="none" fill="#0295A8" fill-rule="evenodd" /><path id="1322" transform="matrix(1 0 0 -1 0 792)" d="M487.37 114.86C 487.37 117.2 489.27 119.1 491.62 119.1C 493.96 119.1 495.87 117.2 495.87 114.86C 495.87 112.51 493.96 110.61 491.62 110.61C 489.27 110.61 487.37 112.51 487.37 114.86z" stroke="none" fill="#0295A8" fill-rule="evenodd" /><path id="1323" transform="matrix(1 0 0 -1 0 792)" d="M508.73 114.85C 508.73 117.2 510.63 119.1 512.98 119.1C 515.33 119.1 517.23 117.2 517.23 114.85C 517.23 112.51 515.33 110.6 512.98 110.6C 510.63 110.6 508.73 112.51 508.73 114.85z" stroke="none" fill="#0295A8" fill-rule="evenodd" /><path id="1324" transform="matrix(1 0 0 -1 0 792)" d="M518.62 114.86C 518.62 117.2 520.52 119.1 522.87 119.1C 525.21 119.1 527.12 117.2 527.12 114.86C 527.12 112.51 525.21 110.61 522.87 110.61C 520.52 110.61 518.62 112.51 518.62 114.86z" stroke="none" fill="#0295A8" fill-rule="evenodd" /><path id="1325" transform="matrix(1 0 0 -1 0 792)" d="M529.3 114.86C 529.3 117.2 531.2 119.1 533.55 119.1C 535.9 119.1 537.8 117.2 537.8 114.86C 537.8 112.51 535.9 110.61 533.55 110.61C 531.2 110.61 529.3 112.51 529.3 114.86z" stroke="none" fill="#0295A8" fill-rule="evenodd" /><path id="1326" transform="matrix(1 0 0 -1 0 792)" d="M539.98 114.86C 539.98 117.2 541.88 119.1 544.23 119.1C 546.58 119.1 548.48 117.2 548.48 114.86C 548.48 112.51 546.58 110.61 544.23 110.61C 541.88 110.61 539.98 112.51 539.98 114.86z" stroke="none" fill="#0295A8" fill-rule="evenodd" /><path id="1327" transform="matrix(1 0 0 -1 0 792)" d="M550.27 114.86C 550.27 117.2 552.17 119.1 554.52 119.1C 556.86 119.1 558.76 117.2 558.76 114.86C 558.76 112.51 556.86 110.61 554.52 110.61C 552.17 110.61 550.27 112.51 550.27 114.86z" stroke="none" fill="#BFBFBF" fill-rule="evenodd" /><path id="1328" transform="matrix(1 0 0 -1 0 792)" d="M560.55 114.86C 560.55 117.2 562.45 119.1 564.8 119.1C 567.15 119.1 569.05 117.2 569.05 114.86C 569.05 112.51 567.15 110.61 564.8 110.61C 562.45 110.61 560.55 112.51 560.55 114.86z" stroke="none" fill="#BFBFBF" fill-rule="evenodd" /><path id="1329" transform="matrix(1 0 0 -1 0 792)" d="M466.8 94.754C 466.8 97.101 468.7 99.004 471.05 99.004C 473.4 99.004 475.3 97.101 475.3 94.754C 475.3 92.406 473.4 90.504 471.05 90.504C 468.7 90.504 466.8 92.406 466.8 94.754z" stroke="none" fill="#0295A8" fill-rule="evenodd" /><path id="1330" transform="matrix(1 0 0 -1 0 792)" d="M477.3 94.756C 477.3 97.102 479.2 99.004 481.55 99.004C 483.9 99.004 485.8 97.102 485.8 94.756C 485.8 92.41 483.9 90.508 481.55 90.508C 479.2 90.508 477.3 92.41 477.3 94.756z" stroke="none" fill="#0295A8" fill-rule="evenodd" /><path id="1331" transform="matrix(1 0 0 -1 0 792)" d="M498.3 94.756C 498.3 97.102 500.2 99.004 502.55 99.004C 504.9 99.004 506.8 97.102 506.8 94.756C 506.8 92.41 504.9 90.508 502.55 90.508C 500.2 90.508 498.3 92.41 498.3 94.756z" stroke="none" fill="#0295A8" fill-rule="evenodd" /><path id="1332" transform="matrix(1 0 0 -1 0 792)" d="M487.5 94.756C 487.5 97.102 489.4 99.004 491.75 99.004C 494.1 99.004 496 97.102 496 94.756C 496 92.41 494.1 90.508 491.75 90.508C 489.4 90.508 487.5 92.41 487.5 94.756z" stroke="none" fill="#0295A8" fill-rule="evenodd" /><path id="1333" transform="matrix(1 0 0 -1 0 792)" d="M508.8 94.754C 508.8 97.101 510.7 99.004 513.05 99.004C 515.4 99.004 517.3 97.101 517.3 94.754C 517.3 92.406 515.4 90.504 513.05 90.504C 510.7 90.504 508.8 92.406 508.8 94.754z" stroke="none" fill="#0295A8" fill-rule="evenodd" /><path id="1334" transform="matrix(1 0 0 -1 0 792)" d="M519 94.756C 519 97.102 520.9 99.004 523.25 99.004C 525.6 99.004 527.5 97.102 527.5 94.756C 527.5 92.41 525.6 90.508 523.25 90.508C 520.9 90.508 519 92.41 519 94.756z" stroke="none" fill="#0295A8" fill-rule="evenodd" /><path id="1335" transform="matrix(1 0 0 -1 0 792)" d="M529.5 94.756C 529.5 97.102 531.4 99.004 533.75 99.004C 536.1 99.004 538 97.102 538 94.756C 538 92.41 536.1 90.508 533.75 90.508C 531.4 90.508 529.5 92.41 529.5 94.756z" stroke="none" fill="#0295A8" fill-rule="evenodd" /><path id="1336" transform="matrix(1 0 0 -1 0 792)" d="M540 94.756C 540 97.102 541.9 99.004 544.25 99.004C 546.6 99.004 548.5 97.102 548.5 94.756C 548.5 92.41 546.6 90.508 544.25 90.508C 541.9 90.508 540 92.41 540 94.756z" stroke="none" fill="#0295A8" fill-rule="evenodd" /><path id="1337" transform="matrix(1 0 0 -1 0 792)" d="M550.2 94.756C 550.2 97.102 552.1 99.004 554.45 99.004C 556.8 99.004 558.7 97.102 558.7 94.756C 558.7 92.41 556.8 90.508 554.45 90.508C 552.1 90.508 550.2 92.41 550.2 94.756z" stroke="none" fill="#BFBFBF" fill-rule="evenodd" /><path id="1338" transform="matrix(1 0 0 -1 0 792)" d="M561 94.756C 561 97.102 562.9 99.004 565.25 99.004C 567.6 99.004 569.5 97.102 569.5 94.756C 569.5 92.41 567.6 90.508 565.25 90.508C 562.9 90.508 561 92.41 561 94.756z" stroke="none" fill="#BFBFBF" fill-rule="evenodd" /><path id="1339" transform="matrix(1 0 0 -1 0 792)" d="M466.8 76.154C 466.8 78.501 468.7 80.404 471.05 80.404C 473.4 80.404 475.3 78.501 475.3 76.154C 475.3 73.806 473.4 71.904 471.05 71.904C 468.7 71.904 466.8 73.806 466.8 76.154z" stroke="none" fill="#0295A8" fill-rule="evenodd" /><path id="1340" transform="matrix(1 0 0 -1 0 792)" d="M477.4 76.154C 477.4 78.501 479.3 80.404 481.65 80.404C 484 80.404 485.9 78.501 485.9 76.154C 485.9 73.806 484 71.904 481.65 71.904C 479.3 71.904 477.4 73.806 477.4 76.154z" stroke="none" fill="#0295A8" fill-rule="evenodd" /><path id="1341" transform="matrix(1 0 0 -1 0 792)" d="M498.15 76.154C 498.15 78.501 500.05 80.404 502.4 80.404C 504.75 80.404 506.65 78.501 506.65 76.154C 506.65 73.806 504.75 71.904 502.4 71.904C 500.05 71.904 498.15 73.806 498.15 76.154z" stroke="none" fill="#0295A8" fill-rule="evenodd" /><path id="1342" transform="matrix(1 0 0 -1 0 792)" d="M487.55 76.154C 487.55 78.501 489.45 80.404 491.8 80.404C 494.15 80.404 496.05 78.501 496.05 76.154C 496.05 73.806 494.15 71.904 491.8 71.904C 489.45 71.904 487.55 73.806 487.55 76.154z" stroke="none" fill="#0295A8" fill-rule="evenodd" /><path id="1343" transform="matrix(1 0 0 -1 0 792)" d="M508.75 76.154C 508.75 78.501 510.65 80.404 513 80.404C 515.35 80.404 517.25 78.501 517.25 76.154C 517.25 73.806 515.35 71.904 513 71.904C 510.65 71.904 508.75 73.806 508.75 76.154z" stroke="none" fill="#BFBFBF" fill-rule="evenodd" /><path id="1344" transform="matrix(1 0 0 -1 0 792)" d="M518.9 76.154C 518.9 78.501 520.8 80.404 523.15 80.404C 525.5 80.404 527.4 78.501 527.4 76.154C 527.4 73.806 525.5 71.904 523.15 71.904C 520.8 71.904 518.9 73.806 518.9 76.154z" stroke="none" fill="#BFBFBF" fill-rule="evenodd" /><path id="1345" transform="matrix(1 0 0 -1 0 792)" d="M529.5 76.154C 529.5 78.501 531.4 80.404 533.75 80.404C 536.1 80.404 538 78.501 538 76.154C 538 73.806 536.1 71.904 533.75 71.904C 531.4 71.904 529.5 73.806 529.5 76.154z" stroke="none" fill="#BFBFBF" fill-rule="evenodd" /><path id="1346" transform="matrix(1 0 0 -1 0 792)" d="M540.1 76.154C 540.1 78.501 542 80.404 544.35 80.404C 546.7 80.404 548.6 78.501 548.6 76.154C 548.6 73.806 546.7 71.904 544.35 71.904C 542 71.904 540.1 73.806 540.1 76.154z" stroke="none" fill="#BFBFBF" fill-rule="evenodd" /><path id="1347" transform="matrix(1 0 0 -1 0 792)" d="M550.25 76.154C 550.25 78.501 552.15 80.404 554.5 80.404C 556.85 80.404 558.75 78.501 558.75 76.154C 558.75 73.806 556.85 71.904 554.5 71.904C 552.15 71.904 550.25 73.806 550.25 76.154z" stroke="none" fill="#BFBFBF" fill-rule="evenodd" /><path id="1348" transform="matrix(1 0 0 -1 0 792)" d="M560.85 76.154C 560.85 78.501 562.75 80.404 565.1 80.404C 567.45 80.404 569.35 78.501 569.35 76.154C 569.35 73.806 567.45 71.904 565.1 71.904C 562.75 71.904 560.85 73.806 560.85 76.154z" stroke="none" fill="#BFBFBF" fill-rule="evenodd" /></g></g></svg>